999
dxfrw 0.5.10
0
SECTION
2
HEADER
9
$ACADVER
1
AC1021
9
$HANDSEED
5
20000
9
$DWGCODEPAGE
3
ANSI_1252
9
$INSBASE
10
0
20
0
30
0
9
$EXTMIN
10
-39.52
20
-32.6800001443
30
0
9
$EXTMAX
10
116.313346191
20
66.741
30
0
9
$LIMMIN
10
0
20
0
9
$LIMMAX
10
420
20
297
9
$ORTHOMODE
70
0
9
$LTSCALE
40
1
9
$TEXTSTYLE
7
STANDARD
9
$CLAYER
8
0
9
$DIMASZ
40
2.5
9
$DIMLFAC
40
1
9
$DIMSCALE
40
1
9
$DIMEXO
40
0.625
9
$DIMEXE
40
1.25
9
$DIMTXT
40
2.5
9
$DIMTSZ
40
0
9
$DIMAUNIT
70
0
9
$DIMADEC
70
0
9
$DIMLUNIT
70
2
9
$DIMSTYLE
2
Standard
9
$DIMGAP
40
0.625
9
$DIMTIH
70
0
9
$LUNITS
70
2
9
$LUPREC
70
4
9
$AUNITS
70
0
9
$AUPREC
70
2
9
$SPLINESEGS
70
8
9
$SNAPSTYLE
70
0
9
$PINSBASE
10
59.4167875729
20
128.281975016
30
0
9
$PLIMMIN
10
0
20
0
9
$PLIMMAX
10
210
20
297
9
$INSUNITS
70
4
9
$PSVPSCALE
40
1.18716567745
0
ENDSEC
0
SECTION
2
CLASSES
0
ENDSEC
0
SECTION
2
TABLES
0
TABLE
2
VPORT
5
8
330
0
100
AcDbSymbolTable
70
1
0
VPORT
5
31
330
2
100
AcDbSymbolTableRecord
100
AcDbViewportTableRecord
2
*ACTIVE
70
0
10
0
20
0
11
1
21
1
12
75.2275762926
22
34.1208166176
13
0
23
0
14
10
24
10
15
10
25
10
16
0
26
0
36
1
17
0
27
0
37
0
40
102.362449853
41
2.1882183908
42
50
43
0
44
0
50
0
51
0
71
0
72
100
73
1
74
3
75
0
76
1
77
0
78
0
281
0
65
1
110
0
120
0
130
0
111
1
121
0
131
0
112
0
122
1
132
0
79
0
146
0
348
10020
60
7
61
5
292
1
282
1
141
0
142
0
63
250
421
3358443
0
ENDTAB
0
TABLE
2
LTYPE
5
5
330
0
100
AcDbSymbolTable
70
4
0
LTYPE
5
14
330
5
100
AcDbSymbolTableRecord
100
AcDbLinetypeTableRecord
2
ByBlock
70
0
3

72
65
73
0
40
0
0
LTYPE
5
15
330
5
100
AcDbSymbolTableRecord
100
AcDbLinetypeTableRecord
2
ByLayer
70
0
3

72
65
73
0
40
0
0
LTYPE
5
16
330
5
100
AcDbSymbolTableRecord
100
AcDbLinetypeTableRecord
2
Continuous
70
0
3
Solid line
72
65
73
0
40
0
0
LTYPE
5
32
330
5
100
AcDbSymbolTableRecord
100
AcDbLinetypeTableRecord
2
DOT
70
0
3
Dot . . . . . . . . . . . . . . . . . . . . . .
72
65
73
2
40
6.35
49
0
74
0
49
-6.35
74
0
0
LTYPE
5
33
330
5
100
AcDbSymbolTableRecord
100
AcDbLinetypeTableRecord
2
DOT2
70
0
3
Dot (.5x) .....................................
72
65
73
2
40
3.175
49
0
74
0
49
-3.175
74
0
0
LTYPE
5
34
330
5
100
AcDbSymbolTableRecord
100
AcDbLinetypeTableRecord
2
DOTX2
70
0
3
Dot (2x) .  .  .  .  .  .  .  .  .  .  .  .  .
72
65
73
2
40
12.7
49
0
74
0
49
-12.7
74
0
0
LTYPE
5
35
330
5
100
AcDbSymbolTableRecord
100
AcDbLinetypeTableRecord
2
DASHED
70
0
3
Dot . . . . . . . . . . . . . . . . . . . . . .
72
65
73
2
40
19.05
49
12.7
74
0
49
-6.35
74
0
0
LTYPE
5
36
330
5
100
AcDbSymbolTableRecord
100
AcDbLinetypeTableRecord
2
DASHED2
70
0
3
Dashed (.5x) _ _ _ _ _ _ _ _ _ _ _ _ _ _ _ _ _
72
65
73
2
40
9.525
49
6.35
74
0
49
-3.175
74
0
0
LTYPE
5
37
330
5
100
AcDbSymbolTableRecord
100
AcDbLinetypeTableRecord
2
DASHEDX2
70
0
3
Dashed (2x) ____  ____  ____  ____  ____  ___
72
65
73
2
40
38.1
49
25.4
74
0
49
-12.7
74
0
0
LTYPE
5
38
330
5
100
AcDbSymbolTableRecord
100
AcDbLinetypeTableRecord
2
DASHDOT
70
0
3
Dash dot __ . __ . __ . __ . __ . __ . __ . __
72
65
73
4
40
25.4
49
12.7
74
0
49
-6.35
74
0
49
0
74
0
49
-6.35
74
0
0
LTYPE
5
39
330
5
100
AcDbSymbolTableRecord
100
AcDbLinetypeTableRecord
2
DASHDOT2
70
0
3
Dash dot (.5x) _._._._._._._._._._._._._._._.
72
65
73
4
40
12.7
49
6.35
74
0
49
-3.175
74
0
49
0
74
0
49
-3.175
74
0
0
LTYPE
5
3A
330
5
100
AcDbSymbolTableRecord
100
AcDbLinetypeTableRecord
2
DASHDOTX2
70
0
3
Dash dot (2x) ____  .  ____  .  ____  .  ___
72
65
73
4
40
50.8
49
25.4
74
0
49
-12.7
74
0
49
0
74
0
49
-12.7
74
0
0
LTYPE
5
3B
330
5
100
AcDbSymbolTableRecord
100
AcDbLinetypeTableRecord
2
DIVIDE
70
0
3
Divide ____ . . ____ . . ____ . . ____ . . ____
72
65
73
6
40
31.75
49
12.7
74
0
49
-6.35
74
0
49
0
74
0
49
-6.35
74
0
49
0
74
0
49
-6.35
74
0
0
LTYPE
5
3C
330
5
100
AcDbSymbolTableRecord
100
AcDbLinetypeTableRecord
2
DIVIDE2
70
0
3
Divide (.5x) __..__..__..__..__..__..__..__.._
72
65
73
6
40
15.875
49
6.35
74
0
49
-3.175
74
0
49
0
74
0
49
-3.175
74
0
49
0
74
0
49
-3.175
74
0
0
LTYPE
5
3D
330
5
100
AcDbSymbolTableRecord
100
AcDbLinetypeTableRecord
2
DIVIDEX2
70
0
3
Divide (2x) ________  .  .  ________  .  .  _
72
65
73
6
40
63.5
49
25.4
74
0
49
-12.7
74
0
49
0
74
0
49
-12.7
74
0
49
0
74
0
49
-12.7
74
0
0
LTYPE
5
3E
330
5
100
AcDbSymbolTableRecord
100
AcDbLinetypeTableRecord
2
BORDER
70
0
3
Border __ __ . __ __ . __ __ . __ __ . __ __ .
72
65
73
6
40
44.45
49
12.7
74
0
49
-6.35
74
0
49
12.7
74
0
49
-6.35
74
0
49
0
74
0
49
-6.35
74
0
0
LTYPE
5
3F
330
5
100
AcDbSymbolTableRecord
100
AcDbLinetypeTableRecord
2
BORDER2
70
0
3
Border (.5x) __.__.__.__.__.__.__.__.__.__.__.
72
65
73
6
40
22.225
49
6.35
74
0
49
-3.175
74
0
49
6.35
74
0
49
-3.175
74
0
49
0
74
0
49
-3.175
74
0
0
LTYPE
5
40
330
5
100
AcDbSymbolTableRecord
100
AcDbLinetypeTableRecord
2
BORDERX2
70
0
3
Border (2x) ____  ____  .  ____  ____  .  ___
72
65
73
6
40
88.9
49
25.4
74
0
49
-12.7
74
0
49
25.4
74
0
49
-12.7
74
0
49
0
74
0
49
-12.7
74
0
0
LTYPE
5
41
330
5
100
AcDbSymbolTableRecord
100
AcDbLinetypeTableRecord
2
CENTER
70
0
3
Center ____ _ ____ _ ____ _ ____ _ ____ _ ____
72
65
73
4
40
50.8
49
31.75
74
0
49
-6.35
74
0
49
6.35
74
0
49
-6.35
74
0
0
LTYPE
5
42
330
5
100
AcDbSymbolTableRecord
100
AcDbLinetypeTableRecord
2
CENTER2
70
0
3
Center (.5x) ___ _ ___ _ ___ _ ___ _ ___ _ ___
72
65
73
4
40
28.575
49
19.05
74
0
49
-3.175
74
0
49
3.175
74
0
49
-3.175
74
0
0
LTYPE
5
43
330
5
100
AcDbSymbolTableRecord
100
AcDbLinetypeTableRecord
2
CENTERX2
70
0
3
Center (2x) ________  __  ________  __  _____
72
65
73
4
40
101.6
49
63.5
74
0
49
-12.7
74
0
49
12.7
74
0
49
-12.7
74
0
0
ENDTAB
0
TABLE
2
LAYER
5
2
330
0
100
AcDbSymbolTable
70
1
0
LAYER
5
10
330
2
100
AcDbSymbolTableRecord
100
AcDbLayerTableRecord
2
0
70
0
62
7
6
CONTINUOUS
370
0
390
F
0
LAYER
5
44
330
2
100
AcDbSymbolTableRecord
100
AcDbLayerTableRecord
2
1
70
0
62
22
6
CONTINUOUS
370
-3
390
F
0
LAYER
5
45
330
2
100
AcDbSymbolTableRecord
100
AcDbLayerTableRecord
2
16
70
0
62
175
6
CONTINUOUS
370
-3
390
F
0
LAYER
5
46
330
2
100
AcDbSymbolTableRecord
100
AcDbLayerTableRecord
2
17
70
0
62
82
6
CONTINUOUS
370
-3
390
F
0
LAYER
5
47
330
2
100
AcDbSymbolTableRecord
100
AcDbLayerTableRecord
2
20
70
0
62
7
6
CONTINUOUS
370
-3
390
F
0
LAYER
5
48
330
2
100
AcDbSymbolTableRecord
100
AcDbLayerTableRecord
2
21
70
0
62
253
6
CONTINUOUS
370
-3
390
F
0
LAYER
5
49
330
2
100
AcDbSymbolTableRecord
100
AcDbLayerTableRecord
2
23
70
0
62
7
6
CONTINUOUS
370
-3
390
F
0
LAYER
5
4A
330
2
100
AcDbSymbolTableRecord
100
AcDbLayerTableRecord
2
45
70
0
62
253
6
CONTINUOUS
370
-3
390
F
0
LAYER
5
4B
330
2
100
AcDbSymbolTableRecord
100
AcDbLayerTableRecord
2
51
70
0
62
253
6
CONTINUOUS
370
-3
390
F
0
ENDTAB
0
TABLE
2
STYLE
5
3
330
0
100
AcDbSymbolTable
70
3
0
STYLE
5
4C
330
2
100
AcDbSymbolTableRecord
100
AcDbTextStyleTableRecord
2
standard
70
0
40
0
41
1
50
0
71
0
42
1
3
standard
4

0
ENDTAB
0
TABLE
2
VIEW
5
6
330
0
100
AcDbSymbolTable
70
0
0
ENDTAB
0
TABLE
2
UCS
5
7
330
0
100
AcDbSymbolTable
70
0
0
ENDTAB
0
TABLE
2
APPID
5
9
330
0
100
AcDbSymbolTable
70
1
0
APPID
5
12
330
9
100
AcDbSymbolTableRecord
100
AcDbRegAppTableRecord
2
ACAD
70
0
0
ENDTAB
0
TABLE
2
DIMSTYLE
5
A
330
0
100
AcDbSymbolTable
70
1
100
AcDbDimStyleTable
71
1
0
DIMSTYLE
105
4D
330
A
100
AcDbSymbolTableRecord
100
AcDbDimStyleTableRecord
2
Standard
70
0
40
1
41
2.5
42
0.625
43
0.38
44
1.25
45
0
46
0
47
0
48
0
140
2.5
141
0.09
142
0
143
25.4
144
1
145
0
146
1
147
0.625
148
0
71
0
72
0
73
0
74
1
75
0
76
0
77
0
78
0
79
0
170
0
171
2
172
0
173
0
174
0
175
0
176
0
177
0
178
0
179
0
271
4
272
4
273
2
274
2
275
0
276
0
277
2
278
46
279
0
280
0
281
0
282
0
283
1
284
0
285
0
286
0
288
0
289
3
340
Standard
341

371
-2
372
-2
0
ENDTAB
0
TABLE
2
BLOCK_RECORD
5
1
330
0
100
AcDbSymbolTable
70
2
0
BLOCK_RECORD
5
1F
330
1
100
AcDbSymbolTableRecord
100
AcDbBlockTableRecord
2
*Model_Space
70
0
280
1
281
0
0
BLOCK_RECORD
5
1E
330
1
100
AcDbSymbolTableRecord
100
AcDbBlockTableRecord
2
*Paper_Space
70
0
280
1
281
0
0
BLOCK_RECORD
5
4E
330
1
100
AcDbSymbolTableRecord
100
AcDbBlockTableRecord
2
*D10
70
0
280
1
281
0
0
BLOCK_RECORD
5
51
330
1
100
AcDbSymbolTableRecord
100
AcDbBlockTableRecord
2
*D7
70
0
280
1
281
0
0
BLOCK_RECORD
5
54
330
1
100
AcDbSymbolTableRecord
100
AcDbBlockTableRecord
2
*D5
70
0
280
1
281
0
0
BLOCK_RECORD
5
57
330
1
100
AcDbSymbolTableRecord
100
AcDbBlockTableRecord
2
*D9
70
0
280
1
281
0
0
BLOCK_RECORD
5
5A
330
1
100
AcDbSymbolTableRecord
100
AcDbBlockTableRecord
2
*D8
70
0
280
1
281
0
0
BLOCK_RECORD
5
5D
330
1
100
AcDbSymbolTableRecord
100
AcDbBlockTableRecord
2
*D2
70
0
280
1
281
0
0
BLOCK_RECORD
5
60
330
1
100
AcDbSymbolTableRecord
100
AcDbBlockTableRecord
2
*D6
70
0
280
1
281
0
0
BLOCK_RECORD
5
63
330
1
100
AcDbSymbolTableRecord
100
AcDbBlockTableRecord
2
*D3
70
0
280
1
281
0
0
BLOCK_RECORD
5
66
330
1
100
AcDbSymbolTableRecord
100
AcDbBlockTableRecord
2
*D4
70
0
280
1
281
0
0
BLOCK_RECORD
5
69
330
1
100
AcDbSymbolTableRecord
100
AcDbBlockTableRecord
2
*D1
70
0
280
1
281
0
0
BLOCK_RECORD
5
6C
330
1
100
AcDbSymbolTableRecord
100
AcDbBlockTableRecord
2
RECT
70
0
280
1
281
0
0
BLOCK_RECORD
5
6F
330
1
100
AcDbSymbolTableRecord
100
AcDbBlockTableRecord
2
PIE
70
0
280
1
281
0
0
BLOCK_RECORD
5
72
330
1
100
AcDbSymbolTableRecord
100
AcDbBlockTableRecord
2
OCTAGONP
70
0
280
1
281
0
0
BLOCK_RECORD
5
75
330
1
100
AcDbSymbolTableRecord
100
AcDbBlockTableRecord
2
SQUAREP
70
0
280
1
281
0
0
BLOCK_RECORD
5
78
330
1
100
AcDbSymbolTableRecord
100
AcDbBlockTableRecord
2
ROUNDP
70
0
280
1
281
0
0
BLOCK_RECORD
5
7B
330
1
100
AcDbSymbolTableRecord
100
AcDbBlockTableRecord
2
ANNULUSP
70
0
280
1
281
0
0
BLOCK_RECORD
5
7E
330
1
100
AcDbSymbolTableRecord
100
AcDbBlockTableRecord
2
THERMALP
70
0
280
1
281
0
0
BLOCK_RECORD
5
81
330
1
100
AcDbSymbolTableRecord
100
AcDbBlockTableRecord
2
OCTAGONV
70
0
280
1
281
0
0
BLOCK_RECORD
5
84
330
1
100
AcDbSymbolTableRecord
100
AcDbBlockTableRecord
2
SQUAREV
70
0
280
1
281
0
0
BLOCK_RECORD
5
87
330
1
100
AcDbSymbolTableRecord
100
AcDbBlockTableRecord
2
ROUNDV
70
0
280
1
281
0
0
BLOCK_RECORD
5
8A
330
1
100
AcDbSymbolTableRecord
100
AcDbBlockTableRecord
2
ANNULUSV
70
0
280
1
281
0
0
BLOCK_RECORD
5
8D
330
1
100
AcDbSymbolTableRecord
100
AcDbBlockTableRecord
2
THERMALV
70
0
280
1
281
0
0
BLOCK_RECORD
5
90
330
1
100
AcDbSymbolTableRecord
100
AcDbBlockTableRecord
2
LONGP100
70
0
280
1
281
0
0
ENDTAB
0
ENDSEC
0
SECTION
2
BLOCKS
0
BLOCK
5
20
330
1F
100
AcDbEntity
8
0
100
AcDbBlockBegin
2
*Model_Space
70
0
10
0
20
0
30
0
3
*Model_Space
1

0
ENDBLK
5
21
330
1F
100
AcDbEntity
8
0
100
AcDbBlockEnd
0
BLOCK
5
1C
330
1B
100
AcDbEntity
8
0
100
AcDbBlockBegin
2
*Paper_Space
70
0
10
0
20
0
30
0
3
*Paper_Space
1

0
ENDBLK
5
1D
330
1F
100
AcDbEntity
8
0
100
AcDbBlockEnd
0
BLOCK
5
4F
330
4E
100
AcDbEntity
8
0
100
AcDbBlockBegin
2
*D10
70
1
10
0
20
0
3
*D10
1

0
LINE
5
93
100
AcDbEntity
8
0
6
CONTINUOUS
62
7
370
0
100
AcDbLine
10
17.145
20
19.3536
11
-1.97215226305e-031
21
19.3536
0
SOLID
5
94
100
AcDbEntity
8
0
6
CONTINUOUS
62
7
370
0
100
AcDbTrace
10
17.145
20
19.3536
30
0
11
14.645
21
18.9373153422
31
0
12
14.645
22
19.7698846578
32
0
13
14.645
23
19.7698846578
33
0
0
SOLID
5
95
100
AcDbEntity
8
0
6
CONTINUOUS
62
7
370
0
100
AcDbTrace
10
-1.97215226305e-031
20
19.3536
30
0
11
2.5
21
19.7698846578
31
0
12
2.5
22
18.9373153422
32
0
13
2.5
23
18.9373153422
33
0
0
MTEXT
5
96
100
AcDbEntity
8
0
6
CONTINUOUS
62
7
370
0
100
AcDbMText
10
8.5725
20
21.2286
30
0
40
2.5
41
8.88888888889
71
5
72
1
1
17.145
7
standard
210
0
220
0
230
1
50
360
73
2
44
1
0
LINE
5
97
100
AcDbEntity
8
0
6
CONTINUOUS
62
7
370
0
100
AcDbLine
10
17.145
20
10.785
11
17.145
21
20.6036
0
LINE
5
98
100
AcDbEntity
8
0
6
CONTINUOUS
62
7
370
0
100
AcDbLine
10
3.82689485569e-017
20
0.625
11
7.65378971139e-017
21
20.6036
0
ENDBLK
5
50
330
4E
100
AcDbEntity
8
0
100
AcDbBlockEnd
0
BLOCK
5
52
330
51
100
AcDbEntity
8
0
100
AcDbBlockBegin
2
*D7
70
1
10
0
20
0
3
*D7
1

0
LINE
5
99
100
AcDbEntity
8
0
6
CONTINUOUS
62
7
370
0
100
AcDbLine
10
7.1054273576e-015
20
63.616
11
59.68494592
21
63.616
0
SOLID
5
9A
100
AcDbEntity
8
0
6
CONTINUOUS
62
7
370
0
100
AcDbTrace
10
7.1054273576e-015
20
63.616
30
0
11
2.5
21
64.0322846578
31
0
12
2.5
22
63.1997153422
32
0
13
2.5
23
63.1997153422
33
0
0
SOLID
5
9B
100
AcDbEntity
8
0
6
CONTINUOUS
62
7
370
0
100
AcDbTrace
10
59.68494592
20
63.616
30
0
11
57.18494592
21
63.1997153422
31
0
12
57.18494592
22
64.0322846578
32
0
13
57.18494592
23
64.0322846578
33
0
0
MTEXT
5
9C
100
AcDbEntity
8
0
6
CONTINUOUS
62
7
370
0
100
AcDbMText
10
29.84247296
20
65.491
30
0
40
2.5
41
11.9444444444
71
5
72
1
1
59.6849
7
standard
210
0
220
0
230
1
50
0
73
2
44
1
0
LINE
5
9D
100
AcDbEntity
8
0
6
CONTINUOUS
62
7
370
0
100
AcDbLine
10
3.82689485569e-017
20
0.625
11
7.18196525471e-015
21
64.866
0
LINE
5
9E
100
AcDbEntity
8
0
6
CONTINUOUS
62
7
370
0
100
AcDbLine
10
59.68494592
20
43.99410336
11
59.68494592
21
64.866
0
ENDBLK
5
53
330
51
100
AcDbEntity
8
0
100
AcDbBlockEnd
0
BLOCK
5
55
330
54
100
AcDbEntity
8
0
100
AcDbBlockBegin
2
*D5
70
1
10
0
20
0
3
*D5
1

0
LINE
5
9F
100
AcDbEntity
8
0
6
CONTINUOUS
62
7
370
0
100
AcDbLine
10
-9.18454765367e-016
20
-3.095
11
9.18454765367e-016
21
6.905
0
SOLID
5
A0
100
AcDbEntity
8
0
6
CONTINUOUS
62
7
370
0
100
AcDbTrace
10
-4.93210545866e-031
20
1.905
30
0
11
0.416284657773
21
-0.595
31
0
12
-0.416284657773
22
-0.595
32
0
13
-0.416284657773
23
-0.595
33
0
0
SOLID
5
A1
100
AcDbEntity
8
0
6
CONTINUOUS
62
7
370
0
100
AcDbTrace
10
-2.59525913888e-031
20
1.905
30
0
11
-0.416284657773
21
4.405
31
0
12
0.416284657773
22
4.405
32
0
13
0.416284657773
23
4.405
33
0
0
MTEXT
5
A2
100
AcDbEntity
8
0
6
CONTINUOUS
62
7
370
0
100
AcDbMText
10
-1.875
20
3.08555555556
30
0
40
2.5
41
1.11111111111
71
5
72
1
1
0
7
standard
210
0
220
0
230
1
50
90
73
2
44
1
0
LINE
5
A3
100
AcDbEntity
8
0
6
CONTINUOUS
62
7
370
0
100
AcDbLine
10
5.625
20
1.905
11
-1.25
21
1.905
0
LINE
5
A4
100
AcDbEntity
8
0
6
CONTINUOUS
62
7
370
0
100
AcDbLine
10
67.955
20
1.905
11
-1.25
21
1.905
0
ENDBLK
5
56
330
54
100
AcDbEntity
8
0
100
AcDbBlockEnd
0
BLOCK
5
58
330
57
100
AcDbEntity
8
0
100
AcDbBlockBegin
2
*D9
70
1
10
0
20
0
3
*D9
1

0
SOLID
5
A5
100
AcDbEntity
8
0
6
CONTINUOUS
62
7
370
0
100
AcDbTrace
10
69.8850205278
20
42.8357005034
30
0
11
71.6832682793
21
44.6216450548
31
0
12
72.1649619258
22
43.942570025
32
0
13
72.1649619258
23
43.942570025
33
0
0
LINE
5
A6
100
AcDbEntity
8
0
6
CONTINUOUS
62
7
370
0
100
AcDbLine
10
68.58
20
41.91
11
76.6820024436
21
47.6570572917
0
MTEXT
5
A7
100
AcDbEntity
8
0
6
CONTINUOUS
62
7
370
0
100
AcDbMText
10
72.1987062083
20
46.7756998286
30
0
40
2.5
41
3.33333333333
71
5
72
1
1
1.6
7
standard
210
0
220
0
230
1
50
35.3495220365
73
2
44
1
0
ENDBLK
5
59
330
57
100
AcDbEntity
8
0
100
AcDbBlockEnd
0
BLOCK
5
5B
330
5A
100
AcDbEntity
8
0
100
AcDbBlockBegin
2
*D8
70
1
10
0
20
0
3
*D8
1

0
LINE
5
A8
100
AcDbEntity
8
0
6
CONTINUOUS
62
7
370
0
100
AcDbLine
10
74.5
20
-19.2
11
0
21
-19.2
0
SOLID
5
A9
100
AcDbEntity
8
0
6
CONTINUOUS
62
7
370
0
100
AcDbTrace
10
74.5
20
-19.2
30
0
11
72
21
-19.6162846578
31
0
12
72
22
-18.7837153422
32
0
13
72
23
-18.7837153422
33
0
0
SOLID
5
AA
100
AcDbEntity
8
0
6
CONTINUOUS
62
7
370
0
100
AcDbTrace
10
0
20
-19.2
30
0
11
2.5
21
-18.7837153422
31
0
12
2.5
22
-19.6162846578
32
0
13
2.5
23
-19.6162846578
33
0
0
MTEXT
5
AB
100
AcDbEntity
8
0
6
CONTINUOUS
62
7
370
0
100
AcDbMText
10
37.25
20
-17.325
30
0
40
2.5
41
6.11111111111
71
5
72
1
1
74.5
7
standard
210
0
220
0
230
1
50
360
73
2
44
1
0
LINE
5
AC
100
AcDbEntity
8
0
6
CONTINUOUS
62
7
370
0
100
AcDbLine
10
74.5
20
-0.625
11
74.5
21
-20.45
0
LINE
5
AD
100
AcDbEntity
8
0
6
CONTINUOUS
62
7
370
0
100
AcDbLine
10
-1.14806845671e-016
20
-0.625
11
-2.29613691342e-016
21
-20.45
0
ENDBLK
5
5C
330
5A
100
AcDbEntity
8
0
100
AcDbBlockEnd
0
BLOCK
5
5E
330
5D
100
AcDbEntity
8
0
100
AcDbBlockBegin
2
*D2
70
1
10
0
20
0
3
*D2
1

0
LINE
5
AE
100
AcDbEntity
8
0
6
CONTINUOUS
62
7
370
0
100
AcDbLine
10
-19.52
20
41.91
11
-19.52
21
1.905
0
SOLID
5
AF
100
AcDbEntity
8
0
6
CONTINUOUS
62
7
370
0
100
AcDbTrace
10
-19.52
20
41.91
30
0
11
-19.1037153422
21
39.41
31
0
12
-19.9362846578
22
39.41
32
0
13
-19.9362846578
23
39.41
33
0
0
SOLID
5
B0
100
AcDbEntity
8
0
6
CONTINUOUS
62
7
370
0
100
AcDbTrace
10
-19.52
20
1.905
30
0
11
-19.9362846578
21
4.405
31
0
12
-19.1037153422
22
4.405
32
0
13
-19.1037153422
23
4.405
33
0
0
MTEXT
5
B1
100
AcDbEntity
8
0
6
CONTINUOUS
62
7
370
0
100
AcDbMText
10
-21.395
20
21.9075
30
0
40
2.5
41
10
71
5
72
1
1
40.005
7
standard
210
0
220
0
230
1
50
90
73
2
44
1
0
LINE
5
B2
100
AcDbEntity
8
0
6
CONTINUOUS
62
7
370
0
100
AcDbLine
10
5.625
20
41.91
11
-20.77
21
41.91
0
LINE
5
B3
100
AcDbEntity
8
0
6
CONTINUOUS
62
7
370
0
100
AcDbLine
10
5.625
20
1.905
11
-20.77
21
1.905
0
ENDBLK
5
5F
330
5D
100
AcDbEntity
8
0
100
AcDbBlockEnd
0
BLOCK
5
61
330
60
100
AcDbEntity
8
0
100
AcDbBlockBegin
2
*D6
70
1
10
0
20
0
3
*D6
1

0
LINE
5
B4
100
AcDbEntity
8
0
6
CONTINUOUS
62
7
370
0
100
AcDbLine
10
0
20
57.4
11
46
21
57.4
0
SOLID
5
B5
100
AcDbEntity
8
0
6
CONTINUOUS
62
7
370
0
100
AcDbTrace
10
0
20
57.4
30
0
11
2.5
21
57.8162846578
31
0
12
2.5
22
56.9837153422
32
0
13
2.5
23
56.9837153422
33
0
0
SOLID
5
B6
100
AcDbEntity
8
0
6
CONTINUOUS
62
7
370
0
100
AcDbTrace
10
46
20
57.4
30
0
11
43.5
21
56.9837153422
31
0
12
43.5
22
57.8162846578
32
0
13
43.5
23
57.8162846578
33
0
0
MTEXT
5
B7
100
AcDbEntity
8
0
6
CONTINUOUS
62
7
370
0
100
AcDbMText
10
23
20
59.275
30
0
40
2.5
41
3.33333333333
71
5
72
1
1
46
7
standard
210
0
220
0
230
1
50
0
73
2
44
1
0
LINE
5
B8
100
AcDbEntity
8
0
6
CONTINUOUS
62
7
370
0
100
AcDbLine
10
3.82689485569e-017
20
0.625
11
7.65378971139e-017
21
58.65
0
LINE
5
B9
100
AcDbEntity
8
0
6
CONTINUOUS
62
7
370
0
100
AcDbLine
10
46
20
43.425
11
46
21
58.65
0
ENDBLK
5
62
330
60
100
AcDbEntity
8
0
100
AcDbBlockEnd
0
BLOCK
5
64
330
63
100
AcDbEntity
8
0
100
AcDbBlockBegin
2
*D3
70
1
10
0
20
0
3
*D3
1

0
LINE
5
BA
100
AcDbEntity
8
0
6
CONTINUOUS
62
7
370
0
100
AcDbLine
10
6.25
20
-7.04
11
68.58
21
-7.04
0
SOLID
5
BB
100
AcDbEntity
8
0
6
CONTINUOUS
62
7
370
0
100
AcDbTrace
10
6.25
20
-7.04
30
0
11
8.75
21
-6.62371534223
31
0
12
8.75
22
-7.45628465777
32
0
13
8.75
23
-7.45628465777
33
0
0
SOLID
5
BC
100
AcDbEntity
8
0
6
CONTINUOUS
62
7
370
0
100
AcDbTrace
10
68.58
20
-7.04
30
0
11
66.08
21
-7.45628465777
31
0
12
66.08
22
-6.62371534223
32
0
13
66.08
23
-6.62371534223
33
0
0
MTEXT
5
BD
100
AcDbEntity
8
0
6
CONTINUOUS
62
7
370
0
100
AcDbMText
10
37.415
20
-5.165
30
0
40
2.5
41
7.77777777778
71
5
72
1
1
62.33
7
standard
210
0
220
0
230
1
50
0
73
2
44
1
0
LINE
5
BE
100
AcDbEntity
8
0
6
CONTINUOUS
62
7
370
0
100
AcDbLine
10
6.25
20
1.28
11
6.25
21
-8.29
0
LINE
5
BF
100
AcDbEntity
8
0
6
CONTINUOUS
62
7
370
0
100
AcDbLine
10
68.58
20
1.28
11
68.58
21
-8.29
0
ENDBLK
5
65
330
63
100
AcDbEntity
8
0
100
AcDbBlockEnd
0
BLOCK
5
67
330
66
100
AcDbEntity
8
0
100
AcDbBlockBegin
2
*D4
70
1
10
0
20
0
3
*D4
1

0
LINE
5
C0
100
AcDbEntity
8
0
6
CONTINUOUS
62
7
370
0
100
AcDbLine
10
11.22592
20
-12.8974848
11
-5
21
-12.8974848
0
SOLID
5
C1
100
AcDbEntity
8
0
6
CONTINUOUS
62
7
370
0
100
AcDbTrace
10
6.22592
20
-12.8974848
30
0
11
8.72592
21
-12.4812001422
31
0
12
8.72592
22
-13.3137694578
32
0
13
8.72592
23
-13.3137694578
33
0
0
SOLID
5
C2
100
AcDbEntity
8
0
6
CONTINUOUS
62
7
370
0
100
AcDbTrace
10
0
20
-12.8974848
30
0
11
-2.5
21
-13.3137694578
31
0
12
-2.5
22
-12.4812001422
32
0
13
-2.5
23
-12.4812001422
33
0
0
MTEXT
5
C3
100
AcDbEntity
8
0
6
CONTINUOUS
62
7
370
0
100
AcDbMText
10
11.7120311111
20
-11.0224848
30
0
40
2.5
41
9.72222222222
71
5
72
1
1
6.2259
7
standard
210
0
220
0
230
1
50
360
73
2
44
1
0
LINE
5
C4
100
AcDbEntity
8
0
6
CONTINUOUS
62
7
370
0
100
AcDbLine
10
6.22592
20
0.751256
11
6.22592
21
-14.1474848
0
LINE
5
C5
100
AcDbEntity
8
0
6
CONTINUOUS
62
7
370
0
100
AcDbLine
10
-1.14806845671e-016
20
-0.625
11
-2.29613691342e-016
21
-14.1474848
0
ENDBLK
5
68
330
66
100
AcDbEntity
8
0
100
AcDbBlockEnd
0
BLOCK
5
6A
330
69
100
AcDbEntity
8
0
100
AcDbBlockBegin
2
*D1
70
1
10
0
20
0
3
*D1
1

0
LINE
5
C6
100
AcDbEntity
8
0
6
CONTINUOUS
62
7
370
0
100
AcDbLine
10
-30.336
20
-7.1054273576e-015
11
-30.336
21
43.75
0
SOLID
5
C7
100
AcDbEntity
8
0
6
CONTINUOUS
62
7
370
0
100
AcDbTrace
10
-30.336
20
-7.1054273576e-015
30
0
11
-30.7522846578
21
2.5
31
0
12
-29.9197153422
22
2.5
32
0
13
-29.9197153422
23
2.5
33
0
0
SOLID
5
C8
100
AcDbEntity
8
0
6
CONTINUOUS
62
7
370
0
100
AcDbTrace
10
-30.336
20
43.75
30
0
11
-29.9197153422
21
41.25
31
0
12
-30.7522846578
22
41.25
32
0
13
-30.7522846578
23
41.25
33
0
0
MTEXT
5
C9
100
AcDbEntity
8
0
6
CONTINUOUS
62
7
370
0
100
AcDbMText
10
-32.211
20
21.875
30
0
40
2.5
41
8.05555555556
71
5
72
1
1
43.75
7
standard
210
0
220
0
230
1
50
90
73
2
44
1
0
LINE
5
CA
100
AcDbEntity
8
0
6
CONTINUOUS
62
7
370
0
100
AcDbLine
10
-0.625
20
7.65378971139e-017
11
-31.586
21
-6.95235156337e-015
0
LINE
5
CB
100
AcDbEntity
8
0
6
CONTINUOUS
62
7
370
0
100
AcDbLine
10
-0.625
20
43.75
11
-31.586
21
43.75
0
ENDBLK
5
6B
330
69
100
AcDbEntity
8
0
100
AcDbBlockEnd
0
BLOCK
5
6D
330
6C
100
AcDbEntity
8
0
100
AcDbBlockBegin
2
RECT
70
0
10
0
20
0
3
RECT
1

0
SOLID
5
CC
100
AcDbEntity
8
0
6
ByLayer
62
256
370
-1
100
AcDbTrace
10
-0.5
20
-0.5
30
0
11
0.5
21
-0.5
31
0
12
-0.5
22
0.5
32
0
13
0.5
23
0.5
33
0
0
ENDBLK
5
6E
330
6C
100
AcDbEntity
8
0
100
AcDbBlockEnd
0
BLOCK
5
70
330
6F
100
AcDbEntity
8
0
100
AcDbBlockBegin
2
PIE
70
0
10
0
20
0
3
PIE
1

0
LWPOLYLINE
5
CD
100
AcDbEntity
8
0
6
ByLayer
62
256
370
-1
100
AcDbPolyline
90
3
70
0
43
0
10
-4.59227382683e-017
20
-0.25
42
1
10
2.29613691342e-017
20
0.25
42
1
10
-3.82689485569e-017
20
-0.25
42
1
0
ENDBLK
5
71
330
6F
100
AcDbEntity
8
0
100
AcDbBlockEnd
0
BLOCK
5
73
330
72
100
AcDbEntity
8
0
100
AcDbBlockBegin
2
OCTAGONP
70
0
10
0
20
0
3
OCTAGONP
1

0
LWPOLYLINE
5
CE
100
AcDbEntity
8
0
6
ByLayer
62
256
370
-1
100
AcDbPolyline
90
10
70
0
43
0
10
-0.25
20
-0.1036
10
-0.25
20
0.1036
10
-0.1036
20
0.25
10
0.1036
20
0.25
10
0.25
20
0.1036
10
0.25
20
-0.1036
10
0.1036
20
-0.25
10
-0.1036
20
-0.25
10
-0.25
20
-0.1036
10
-0.25
20
0.1036
0
ENDBLK
5
74
330
72
100
AcDbEntity
8
0
100
AcDbBlockEnd
0
BLOCK
5
76
330
75
100
AcDbEntity
8
0
100
AcDbBlockBegin
2
SQUAREP
70
0
10
0
20
0
3
SQUAREP
1

0
SOLID
5
CF
100
AcDbEntity
8
0
6
ByLayer
62
256
370
-1
100
AcDbTrace
10
-0.5
20
-0.5
30
0
11
0.5
21
-0.5
31
0
12
-0.5
22
0.5
32
0
13
0.5
23
0.5
33
0
0
ENDBLK
5
77
330
75
100
AcDbEntity
8
0
100
AcDbBlockEnd
0
BLOCK
5
79
330
78
100
AcDbEntity
8
0
100
AcDbBlockBegin
2
ROUNDP
70
0
10
0
20
0
3
ROUNDP
1

0
LWPOLYLINE
5
D0
100
AcDbEntity
8
0
6
ByLayer
62
256
370
-1
100
AcDbPolyline
90
3
70
0
43
0
10
-4.59227382683e-017
20
-0.25
42
1
10
2.29613691342e-017
20
0.25
42
1
10
-3.82689485569e-017
20
-0.25
42
1
0
ENDBLK
5
7A
330
78
100
AcDbEntity
8
0
100
AcDbBlockEnd
0
BLOCK
5
7C
330
7B
100
AcDbEntity
8
0
100
AcDbBlockBegin
2
ANNULUSP
70
0
10
0
20
0
3
ANNULUSP
1

0
LWPOLYLINE
5
D1
100
AcDbEntity
8
0
6
ByLayer
62
256
370
-1
100
AcDbPolyline
90
3
70
0
43
0
10
-4.59227382683e-017
20
-0.25
42
1
10
2.29613691342e-017
20
0.25
42
1
10
-3.82689485569e-017
20
-0.25
42
1
0
ENDBLK
5
7D
330
7B
100
AcDbEntity
8
0
100
AcDbBlockEnd
0
BLOCK
5
7F
330
7E
100
AcDbEntity
8
0
100
AcDbBlockBegin
2
THERMALP
70
0
10
0
20
0
3
THERMALP
1

0
LWPOLYLINE
5
D2
100
AcDbEntity
8
0
6
ByLayer
62
256
370
-1
100
AcDbPolyline
90
2
70
0
43
0
10
-0.2379
20
0.45
10
0.2379
20
0.45
0
LWPOLYLINE
5
D3
100
AcDbEntity
8
0
6
ByLayer
62
256
370
-1
100
AcDbPolyline
90
2
70
0
43
0
10
0.2379
20
0.425
42
1
10
0.2379
20
0.475
42
1
0
LWPOLYLINE
5
D4
100
AcDbEntity
8
0
6
ByLayer
62
256
370
-1
100
AcDbPolyline
90
2
70
0
43
0
10
-0.2379
20
0.475
42
1
10
-0.2379
20
0.425
42
1
0
LWPOLYLINE
5
D5
100
AcDbEntity
8
0
6
ByLayer
62
256
370
-1
100
AcDbPolyline
90
2
70
0
43
0
10
0.45
20
0.2379
10
0.45
20
-0.2379
0
LWPOLYLINE
5
D6
100
AcDbEntity
8
0
6
ByLayer
62
256
370
-1
100
AcDbPolyline
90
2
70
0
43
0
10
0.425
20
-0.2379
42
1
10
0.475
20
-0.2379
42
1
0
LWPOLYLINE
5
D7
100
AcDbEntity
8
0
6
ByLayer
62
256
370
-1
100
AcDbPolyline
90
2
70
0
43
0
10
0.475
20
0.2379
42
1
10
0.425
20
0.2379
42
1
0
LWPOLYLINE
5
D8
100
AcDbEntity
8
0
6
ByLayer
62
256
370
-1
100
AcDbPolyline
90
2
70
0
43
0
10
0.2379
20
-0.45
10
-0.2379
20
-0.45
0
LWPOLYLINE
5
D9
100
AcDbEntity
8
0
6
ByLayer
62
256
370
-1
100
AcDbPolyline
90
2
70
0
43
0
10
-0.2379
20
-0.425
42
1
10
-0.2379
20
-0.475
42
1
0
LWPOLYLINE
5
DA
100
AcDbEntity
8
0
6
ByLayer
62
256
370
-1
100
AcDbPolyline
90
2
70
0
43
0
10
0.2379
20
-0.475
42
1
10
0.2379
20
-0.425
42
1
0
LWPOLYLINE
5
DB
100
AcDbEntity
8
0
6
ByLayer
62
256
370
-1
100
AcDbPolyline
90
2
70
0
43
0
10
-0.45
20
-0.2379
10
-0.45
20
0.2379
0
LWPOLYLINE
5
DC
100
AcDbEntity
8
0
6
ByLayer
62
256
370
-1
100
AcDbPolyline
90
2
70
0
43
0
10
-0.425
20
0.2379
42
1
10
-0.475
20
0.2379
42
1
0
LWPOLYLINE
5
DD
100
AcDbEntity
8
0
6
ByLayer
62
256
370
-1
100
AcDbPolyline
90
2
70
0
43
0
10
-0.475
20
-0.2379
42
1
10
-0.425
20
-0.2379
42
1
0
ENDBLK
5
80
330
7E
100
AcDbEntity
8
0
100
AcDbBlockEnd
0
BLOCK
5
82
330
81
100
AcDbEntity
8
0
100
AcDbBlockBegin
2
OCTAGONV
70
0
10
0
20
0
3
OCTAGONV
1

0
LWPOLYLINE
5
DE
100
AcDbEntity
8
0
6
ByLayer
62
256
370
-1
100
AcDbPolyline
90
10
70
0
43
0
10
-0.25
20
-0.1036
10
-0.25
20
0.1036
10
-0.1036
20
0.25
10
0.1036
20
0.25
10
0.25
20
0.1036
10
0.25
20
-0.1036
10
0.1036
20
-0.25
10
-0.1036
20
-0.25
10
-0.25
20
-0.1036
10
-0.25
20
0.1036
0
ENDBLK
5
83
330
81
100
AcDbEntity
8
0
100
AcDbBlockEnd
0
BLOCK
5
85
330
84
100
AcDbEntity
8
0
100
AcDbBlockBegin
2
SQUAREV
70
0
10
0
20
0
3
SQUAREV
1

0
SOLID
5
DF
100
AcDbEntity
8
0
6
ByLayer
62
256
370
-1
100
AcDbTrace
10
-0.5
20
-0.5
30
0
11
0.5
21
-0.5
31
0
12
-0.5
22
0.5
32
0
13
0.5
23
0.5
33
0
0
ENDBLK
5
86
330
84
100
AcDbEntity
8
0
100
AcDbBlockEnd
0
BLOCK
5
88
330
87
100
AcDbEntity
8
0
100
AcDbBlockBegin
2
ROUNDV
70
0
10
0
20
0
3
ROUNDV
1

0
LWPOLYLINE
5
E0
100
AcDbEntity
8
0
6
ByLayer
62
256
370
-1
100
AcDbPolyline
90
3
70
0
43
0
10
-4.59227382683e-017
20
-0.25
42
1
10
2.29613691342e-017
20
0.25
42
1
10
-3.82689485569e-017
20
-0.25
42
1
0
ENDBLK
5
89
330
87
100
AcDbEntity
8
0
100
AcDbBlockEnd
0
BLOCK
5
8B
330
8A
100
AcDbEntity
8
0
100
AcDbBlockBegin
2
ANNULUSV
70
0
10
0
20
0
3
ANNULUSV
1

0
LWPOLYLINE
5
E1
100
AcDbEntity
8
0
6
ByLayer
62
256
370
-1
100
AcDbPolyline
90
3
70
0
43
0
10
-4.59227382683e-017
20
-0.25
42
1
10
2.29613691342e-017
20
0.25
42
1
10
-3.82689485569e-017
20
-0.25
42
1
0
ENDBLK
5
8C
330
8A
100
AcDbEntity
8
0
100
AcDbBlockEnd
0
BLOCK
5
8E
330
8D
100
AcDbEntity
8
0
100
AcDbBlockBegin
2
THERMALV
70
0
10
0
20
0
3
THERMALV
1

0
LWPOLYLINE
5
E2
100
AcDbEntity
8
0
6
ByLayer
62
256
370
-1
100
AcDbPolyline
90
2
70
0
43
0
10
-0.2379
20
0.45
10
0.2379
20
0.45
0
LWPOLYLINE
5
E3
100
AcDbEntity
8
0
6
ByLayer
62
256
370
-1
100
AcDbPolyline
90
2
70
0
43
0
10
0.2379
20
0.425
42
1
10
0.2379
20
0.475
42
1
0
LWPOLYLINE
5
E4
100
AcDbEntity
8
0
6
ByLayer
62
256
370
-1
100
AcDbPolyline
90
2
70
0
43
0
10
-0.2379
20
0.475
42
1
10
-0.2379
20
0.425
42
1
0
LWPOLYLINE
5
E5
100
AcDbEntity
8
0
6
ByLayer
62
256
370
-1
100
AcDbPolyline
90
2
70
0
43
0
10
0.45
20
0.2379
10
0.45
20
-0.2379
0
LWPOLYLINE
5
E6
100
AcDbEntity
8
0
6
ByLayer
62
256
370
-1
100
AcDbPolyline
90
2
70
0
43
0
10
0.425
20
-0.2379
42
1
10
0.475
20
-0.2379
42
1
0
LWPOLYLINE
5
E7
100
AcDbEntity
8
0
6
ByLayer
62
256
370
-1
100
AcDbPolyline
90
2
70
0
43
0
10
0.475
20
0.2379
42
1
10
0.425
20
0.2379
42
1
0
LWPOLYLINE
5
E8
100
AcDbEntity
8
0
6
ByLayer
62
256
370
-1
100
AcDbPolyline
90
2
70
0
43
0
10
0.2379
20
-0.45
10
-0.2379
20
-0.45
0
LWPOLYLINE
5
E9
100
AcDbEntity
8
0
6
ByLayer
62
256
370
-1
100
AcDbPolyline
90
2
70
0
43
0
10
-0.2379
20
-0.425
42
1
10
-0.2379
20
-0.475
42
1
0
LWPOLYLINE
5
EA
100
AcDbEntity
8
0
6
ByLayer
62
256
370
-1
100
AcDbPolyline
90
2
70
0
43
0
10
0.2379
20
-0.475
42
1
10
0.2379
20
-0.425
42
1
0
LWPOLYLINE
5
EB
100
AcDbEntity
8
0
6
ByLayer
62
256
370
-1
100
AcDbPolyline
90
2
70
0
43
0
10
-0.45
20
-0.2379
10
-0.45
20
0.2379
0
LWPOLYLINE
5
EC
100
AcDbEntity
8
0
6
ByLayer
62
256
370
-1
100
AcDbPolyline
90
2
70
0
43
0
10
-0.425
20
0.2379
42
1
10
-0.475
20
0.2379
42
1
0
LWPOLYLINE
5
ED
100
AcDbEntity
8
0
6
ByLayer
62
256
370
-1
100
AcDbPolyline
90
2
70
0
43
0
10
-0.475
20
-0.2379
42
1
10
-0.425
20
-0.2379
42
1
0
ENDBLK
5
8F
330
8D
100
AcDbEntity
8
0
100
AcDbBlockEnd
0
BLOCK
5
91
330
90
100
AcDbEntity
8
0
100
AcDbBlockBegin
2
LONGP100
70
0
10
0
20
0
3
LONGP100
1

0
LWPOLYLINE
5
EE
100
AcDbEntity
8
0
6
ByLayer
62
256
370
-1
100
AcDbPolyline
90
2
70
0
43
0
10
-0.5
20
0
10
0.5
20
0
0
LWPOLYLINE
5
EF
100
AcDbEntity
8
0
6
ByLayer
62
256
370
-1
100
AcDbPolyline
90
2
70
0
43
0
10
0.5
20
-0.25
42
1
10
0.5
20
0.25
42
1
0
LWPOLYLINE
5
F0
100
AcDbEntity
8
0
6
ByLayer
62
256
370
-1
100
AcDbPolyline
90
2
70
0
43
0
10
-0.5
20
0.25
42
1
10
-0.5
20
-0.25
42
1
0
ENDBLK
5
92
330
90
100
AcDbEntity
8
0
100
AcDbBlockEnd
0
ENDSEC
0
SECTION
2
ENTITIES
0
LINE
5
F1
100
AcDbEntity
8
20
6
ByLayer
62
256
370
-1
100
AcDbLine
10
0
20
0
11
74.5
21
0
0
LINE
5
F2
100
AcDbEntity
8
20
6
ByLayer
62
256
370
-1
100
AcDbLine
10
74.5
20
0
11
74.5
21
43.75
0
LINE
5
F3
100
AcDbEntity
8
20
6
ByLayer
62
256
370
-1
100
AcDbLine
10
74.5
20
43.75
11
0
21
43.75
0
LINE
5
F4
100
AcDbEntity
8
20
6
ByLayer
62
256
370
-1
100
AcDbLine
10
0
20
43.75
11
0
21
0
0
CIRCLE
5
F5
100
AcDbEntity
8
20
6
ByLayer
62
256
370
-1
100
AcDbCircle
10
6.25
20
1.905
40
1.6
0
CIRCLE
5
F6
100
AcDbEntity
8
20
6
ByLayer
62
256
370
-1
100
AcDbCircle
10
6.25
20
41.91
40
1.6
0
CIRCLE
5
F7
100
AcDbEntity
8
20
6
ByLayer
62
256
370
-1
100
AcDbCircle
10
68.58
20
41.91
40
1.6
0
CIRCLE
5
F8
100
AcDbEntity
8
20
6
ByLayer
62
256
370
-1
100
AcDbCircle
10
68.58
20
1.905
40
1.6
0
POINT
5
F9
100
AcDbEntity
8
23
6
ByLayer
62
256
370
-1
100
AcDbPoint
10
17.145
20
10.16
0
LWPOLYLINE
5
FA
100
AcDbEntity
8
0
6
ByLayer
62
256
370
-1
100
AcDbPolyline
90
2
70
0
43
0
10
21.645
20
-0.59
10
20.345
20
-0.59
0
LWPOLYLINE
5
FB
100
AcDbEntity
8
0
6
ByLayer
62
256
370
-1
100
AcDbPolyline
90
2
70
0
43
0
10
20.345
20
-0.565
42
1
10
20.345
20
-0.615
42
1
0
LWPOLYLINE
5
FC
100
AcDbEntity
8
0
6
ByLayer
62
256
370
-1
100
AcDbPolyline
90
2
70
0
43
0
10
21.645
20
-0.615
42
1
10
21.645
20
-0.565
42
1
0
LWPOLYLINE
5
FD
100
AcDbEntity
8
0
6
ByLayer
62
256
370
-1
100
AcDbPolyline
90
2
70
0
43
0
10
20.345
20
-0.59
10
13.945
20
-0.59
0
LWPOLYLINE
5
FE
100
AcDbEntity
8
0
6
ByLayer
62
256
370
-1
100
AcDbPolyline
90
2
70
0
43
0
10
13.945
20
-0.565
42
1
10
13.945
20
-0.615
42
1
0
LWPOLYLINE
5
FF
100
AcDbEntity
8
0
6
ByLayer
62
256
370
-1
100
AcDbPolyline
90
2
70
0
43
0
10
20.345
20
-0.615
42
1
10
20.345
20
-0.565
42
1
0
LWPOLYLINE
5
100
100
AcDbEntity
8
0
6
ByLayer
62
256
370
-1
100
AcDbPolyline
90
2
70
0
43
0
10
13.945
20
-0.59
10
12.645
20
-0.59
0
LWPOLYLINE
5
101
100
AcDbEntity
8
0
6
ByLayer
62
256
370
-1
100
AcDbPolyline
90
2
70
0
43
0
10
12.645
20
-0.565
42
1
10
12.645
20
-0.615
42
1
0
LWPOLYLINE
5
102
100
AcDbEntity
8
0
6
ByLayer
62
256
370
-1
100
AcDbPolyline
90
2
70
0
43
0
10
13.945
20
-0.615
42
1
10
13.945
20
-0.565
42
1
0
LWPOLYLINE
5
103
100
AcDbEntity
8
0
6
ByLayer
62
256
370
-1
100
AcDbPolyline
90
2
70
0
43
0
10
21.645
20
2.91
10
13.145
20
2.91
0
LWPOLYLINE
5
104
100
AcDbEntity
8
0
6
ByLayer
62
256
370
-1
100
AcDbPolyline
90
2
70
0
43
0
10
13.145
20
2.935
42
1
10
13.145
20
2.885
42
1
0
LWPOLYLINE
5
105
100
AcDbEntity
8
0
6
ByLayer
62
256
370
-1
100
AcDbPolyline
90
2
70
0
43
0
10
21.645
20
2.885
42
1
10
21.645
20
2.935
42
1
0
LWPOLYLINE
5
106
100
AcDbEntity
8
0
6
ByLayer
62
256
370
-1
100
AcDbPolyline
90
2
70
0
43
0
10
13.145
20
2.91
10
12.645
20
2.91
0
LWPOLYLINE
5
107
100
AcDbEntity
8
0
6
ByLayer
62
256
370
-1
100
AcDbPolyline
90
2
70
0
43
0
10
12.645
20
2.935
42
1
10
12.645
20
2.885
42
1
0
LWPOLYLINE
5
108
100
AcDbEntity
8
0
6
ByLayer
62
256
370
-1
100
AcDbPolyline
90
2
70
0
43
0
10
13.145
20
2.885
42
1
10
13.145
20
2.935
42
1
0
LWPOLYLINE
5
109
100
AcDbEntity
8
0
6
ByLayer
62
256
370
-1
100
AcDbPolyline
90
2
70
0
43
0
10
21.145
20
2.91
10
21.145
20
11.41
0
LWPOLYLINE
5
10A
100
AcDbEntity
8
0
6
ByLayer
62
256
370
-1
100
AcDbPolyline
90
2
70
0
43
0
10
21.17
20
11.41
42
1
10
21.12
20
11.41
42
1
0
LWPOLYLINE
5
10B
100
AcDbEntity
8
0
6
ByLayer
62
256
370
-1
100
AcDbPolyline
90
2
70
0
43
0
10
21.12
20
2.91
42
1
10
21.17
20
2.91
42
1
0
LWPOLYLINE
5
10C
100
AcDbEntity
8
0
6
ByLayer
62
256
370
-1
100
AcDbPolyline
90
2
70
0
43
0
10
13.145
20
2.91
10
13.145
20
11.41
0
LWPOLYLINE
5
10D
100
AcDbEntity
8
0
6
ByLayer
62
256
370
-1
100
AcDbPolyline
90
2
70
0
43
0
10
13.17
20
11.41
42
1
10
13.12
20
11.41
42
1
0
LWPOLYLINE
5
10E
100
AcDbEntity
8
0
6
ByLayer
62
256
370
-1
100
AcDbPolyline
90
2
70
0
43
0
10
13.12
20
2.91
42
1
10
13.17
20
2.91
42
1
0
LWPOLYLINE
5
10F
100
AcDbEntity
8
0
6
ByLayer
62
256
370
-1
100
AcDbPolyline
90
2
70
0
43
0
10
21.145
20
11.41
10
13.145
20
11.41
0
LWPOLYLINE
5
110
100
AcDbEntity
8
0
6
ByLayer
62
256
370
-1
100
AcDbPolyline
90
2
70
0
43
0
10
13.145
20
11.435
42
1
10
13.145
20
11.385
42
1
0
LWPOLYLINE
5
111
100
AcDbEntity
8
0
6
ByLayer
62
256
370
-1
100
AcDbPolyline
90
2
70
0
43
0
10
21.145
20
11.385
42
1
10
21.145
20
11.435
42
1
0
LWPOLYLINE
5
112
100
AcDbEntity
8
0
6
ByLayer
62
256
370
-1
100
AcDbPolyline
90
2
70
0
43
0
10
21.645
20
11.41
10
21.145
20
11.41
0
LWPOLYLINE
5
113
100
AcDbEntity
8
0
6
ByLayer
62
256
370
-1
100
AcDbPolyline
90
2
70
0
43
0
10
21.145
20
11.435
42
1
10
21.145
20
11.385
42
1
0
LWPOLYLINE
5
114
100
AcDbEntity
8
0
6
ByLayer
62
256
370
-1
100
AcDbPolyline
90
2
70
0
43
0
10
21.645
20
11.385
42
1
10
21.645
20
11.435
42
1
0
LWPOLYLINE
5
115
100
AcDbEntity
8
0
6
ByLayer
62
256
370
-1
100
AcDbPolyline
90
2
70
0
43
0
10
13.145
20
11.41
10
12.645
20
11.41
0
LWPOLYLINE
5
116
100
AcDbEntity
8
0
6
ByLayer
62
256
370
-1
100
AcDbPolyline
90
2
70
0
43
0
10
12.645
20
11.435
42
1
10
12.645
20
11.385
42
1
0
LWPOLYLINE
5
117
100
AcDbEntity
8
0
6
ByLayer
62
256
370
-1
100
AcDbPolyline
90
2
70
0
43
0
10
13.145
20
11.385
42
1
10
13.145
20
11.435
42
1
0
LWPOLYLINE
5
118
100
AcDbEntity
8
0
6
ByLayer
62
256
370
-1
100
AcDbPolyline
90
2
70
0
43
0
10
12.645
20
-0.59
10
12.645
20
11.41
0
LWPOLYLINE
5
119
100
AcDbEntity
8
0
6
ByLayer
62
256
370
-1
100
AcDbPolyline
90
2
70
0
43
0
10
12.67
20
11.41
42
1
10
12.62
20
11.41
42
1
0
LWPOLYLINE
5
11A
100
AcDbEntity
8
0
6
ByLayer
62
256
370
-1
100
AcDbPolyline
90
2
70
0
43
0
10
12.62
20
-0.59
42
1
10
12.67
20
-0.59
42
1
0
LWPOLYLINE
5
11B
100
AcDbEntity
8
0
6
ByLayer
62
256
370
-1
100
AcDbPolyline
90
2
70
0
43
0
10
21.645
20
-0.59
10
21.645
20
11.41
0
LWPOLYLINE
5
11C
100
AcDbEntity
8
0
6
ByLayer
62
256
370
-1
100
AcDbPolyline
90
2
70
0
43
0
10
21.67
20
11.41
42
1
10
21.62
20
11.41
42
1
0
LWPOLYLINE
5
11D
100
AcDbEntity
8
0
6
ByLayer
62
256
370
-1
100
AcDbPolyline
90
2
70
0
43
0
10
21.62
20
-0.59
42
1
10
21.67
20
-0.59
42
1
0
LWPOLYLINE
5
11E
100
AcDbEntity
8
0
6
ByLayer
62
256
370
-1
100
AcDbPolyline
90
2
70
0
43
0
10
21.145
20
11.41
10
21.145
20
12.91
0
LWPOLYLINE
5
11F
100
AcDbEntity
8
0
6
ByLayer
62
256
370
-1
100
AcDbPolyline
90
2
70
0
43
0
10
21.17
20
12.91
42
1
10
21.12
20
12.91
42
1
0
LWPOLYLINE
5
120
100
AcDbEntity
8
0
6
ByLayer
62
256
370
-1
100
AcDbPolyline
90
2
70
0
43
0
10
21.12
20
11.41
42
1
10
21.17
20
11.41
42
1
0
LWPOLYLINE
5
121
100
AcDbEntity
8
0
6
ByLayer
62
256
370
-1
100
AcDbPolyline
90
2
70
0
43
0
10
21.145
20
12.91
10
21.145
20
13.41
0
LWPOLYLINE
5
122
100
AcDbEntity
8
0
6
ByLayer
62
256
370
-1
100
AcDbPolyline
90
2
70
0
43
0
10
21.17
20
13.41
42
1
10
21.12
20
13.41
42
1
0
LWPOLYLINE
5
123
100
AcDbEntity
8
0
6
ByLayer
62
256
370
-1
100
AcDbPolyline
90
2
70
0
43
0
10
21.12
20
12.91
42
1
10
21.17
20
12.91
42
1
0
LWPOLYLINE
5
124
100
AcDbEntity
8
0
6
ByLayer
62
256
370
-1
100
AcDbPolyline
90
2
70
0
43
0
10
13.145
20
11.41
10
13.145
20
12.91
0
LWPOLYLINE
5
125
100
AcDbEntity
8
0
6
ByLayer
62
256
370
-1
100
AcDbPolyline
90
2
70
0
43
0
10
13.17
20
12.91
42
1
10
13.12
20
12.91
42
1
0
LWPOLYLINE
5
126
100
AcDbEntity
8
0
6
ByLayer
62
256
370
-1
100
AcDbPolyline
90
2
70
0
43
0
10
13.12
20
11.41
42
1
10
13.17
20
11.41
42
1
0
LWPOLYLINE
5
127
100
AcDbEntity
8
0
6
ByLayer
62
256
370
-1
100
AcDbPolyline
90
2
70
0
43
0
10
13.145
20
12.91
10
13.145
20
13.41
0
LWPOLYLINE
5
128
100
AcDbEntity
8
0
6
ByLayer
62
256
370
-1
100
AcDbPolyline
90
2
70
0
43
0
10
13.17
20
13.41
42
1
10
13.12
20
13.41
42
1
0
LWPOLYLINE
5
129
100
AcDbEntity
8
0
6
ByLayer
62
256
370
-1
100
AcDbPolyline
90
2
70
0
43
0
10
13.12
20
12.91
42
1
10
13.17
20
12.91
42
1
0
LWPOLYLINE
5
12A
100
AcDbEntity
8
0
6
ByLayer
62
256
370
-1
100
AcDbPolyline
90
2
70
0
43
0
10
21.145
20
13.41
10
13.145
20
13.41
0
LWPOLYLINE
5
12B
100
AcDbEntity
8
0
6
ByLayer
62
256
370
-1
100
AcDbPolyline
90
2
70
0
43
0
10
13.145
20
13.435
42
1
10
13.145
20
13.385
42
1
0
LWPOLYLINE
5
12C
100
AcDbEntity
8
0
6
ByLayer
62
256
370
-1
100
AcDbPolyline
90
2
70
0
43
0
10
21.145
20
13.385
42
1
10
21.145
20
13.435
42
1
0
LWPOLYLINE
5
12D
100
AcDbEntity
8
0
6
ByLayer
62
256
370
-1
100
AcDbPolyline
90
2
70
0
43
0
10
21.145
20
12.91
10
13.145
20
12.91
0
LWPOLYLINE
5
12E
100
AcDbEntity
8
0
6
ByLayer
62
256
370
-1
100
AcDbPolyline
90
2
70
0
43
0
10
13.145
20
12.935
42
1
10
13.145
20
12.885
42
1
0
LWPOLYLINE
5
12F
100
AcDbEntity
8
0
6
ByLayer
62
256
370
-1
100
AcDbPolyline
90
2
70
0
43
0
10
21.145
20
12.885
42
1
10
21.145
20
12.935
42
1
0
LWPOLYLINE
5
130
100
AcDbEntity
8
0
6
ByLayer
62
256
370
-1
100
AcDbPolyline
90
2
70
0
43
0
10
13.945
20
-0.59
10
13.945
20
0.41
0
LWPOLYLINE
5
131
100
AcDbEntity
8
0
6
ByLayer
62
256
370
-1
100
AcDbPolyline
90
2
70
0
43
0
10
13.97
20
0.41
42
1
10
13.92
20
0.41
42
1
0
LWPOLYLINE
5
132
100
AcDbEntity
8
0
6
ByLayer
62
256
370
-1
100
AcDbPolyline
90
2
70
0
43
0
10
13.92
20
-0.59
42
1
10
13.97
20
-0.59
42
1
0
LWPOLYLINE
5
133
100
AcDbEntity
8
0
6
ByLayer
62
256
370
-1
100
AcDbPolyline
90
2
70
0
43
0
10
13.945
20
1.41
10
13.945
20
2.41
0
LWPOLYLINE
5
134
100
AcDbEntity
8
0
6
ByLayer
62
256
370
-1
100
AcDbPolyline
90
2
70
0
43
0
10
13.97
20
2.41
42
1
10
13.92
20
2.41
42
1
0
LWPOLYLINE
5
135
100
AcDbEntity
8
0
6
ByLayer
62
256
370
-1
100
AcDbPolyline
90
2
70
0
43
0
10
13.92
20
1.41
42
1
10
13.97
20
1.41
42
1
0
LWPOLYLINE
5
136
100
AcDbEntity
8
0
6
ByLayer
62
256
370
-1
100
AcDbPolyline
90
2
70
0
43
0
10
13.945
20
3.41
10
13.945
20
4.41
0
LWPOLYLINE
5
137
100
AcDbEntity
8
0
6
ByLayer
62
256
370
-1
100
AcDbPolyline
90
2
70
0
43
0
10
13.97
20
4.41
42
1
10
13.92
20
4.41
42
1
0
LWPOLYLINE
5
138
100
AcDbEntity
8
0
6
ByLayer
62
256
370
-1
100
AcDbPolyline
90
2
70
0
43
0
10
13.92
20
3.41
42
1
10
13.97
20
3.41
42
1
0
LWPOLYLINE
5
139
100
AcDbEntity
8
0
6
ByLayer
62
256
370
-1
100
AcDbPolyline
90
2
70
0
43
0
10
13.945
20
5.41
10
13.945
20
6.41
0
LWPOLYLINE
5
13A
100
AcDbEntity
8
0
6
ByLayer
62
256
370
-1
100
AcDbPolyline
90
2
70
0
43
0
10
13.97
20
6.41
42
1
10
13.92
20
6.41
42
1
0
LWPOLYLINE
5
13B
100
AcDbEntity
8
0
6
ByLayer
62
256
370
-1
100
AcDbPolyline
90
2
70
0
43
0
10
13.92
20
5.41
42
1
10
13.97
20
5.41
42
1
0
LWPOLYLINE
5
13C
100
AcDbEntity
8
0
6
ByLayer
62
256
370
-1
100
AcDbPolyline
90
2
70
0
43
0
10
13.945
20
7.41
10
13.945
20
8.41
0
LWPOLYLINE
5
13D
100
AcDbEntity
8
0
6
ByLayer
62
256
370
-1
100
AcDbPolyline
90
2
70
0
43
0
10
13.97
20
8.41
42
1
10
13.92
20
8.41
42
1
0
LWPOLYLINE
5
13E
100
AcDbEntity
8
0
6
ByLayer
62
256
370
-1
100
AcDbPolyline
90
2
70
0
43
0
10
13.92
20
7.41
42
1
10
13.97
20
7.41
42
1
0
LWPOLYLINE
5
13F
100
AcDbEntity
8
0
6
ByLayer
62
256
370
-1
100
AcDbPolyline
90
2
70
0
43
0
10
20.345
20
-0.59
10
20.345
20
0.41
0
LWPOLYLINE
5
140
100
AcDbEntity
8
0
6
ByLayer
62
256
370
-1
100
AcDbPolyline
90
2
70
0
43
0
10
20.37
20
0.41
42
1
10
20.32
20
0.41
42
1
0
LWPOLYLINE
5
141
100
AcDbEntity
8
0
6
ByLayer
62
256
370
-1
100
AcDbPolyline
90
2
70
0
43
0
10
20.32
20
-0.59
42
1
10
20.37
20
-0.59
42
1
0
LWPOLYLINE
5
142
100
AcDbEntity
8
0
6
ByLayer
62
256
370
-1
100
AcDbPolyline
90
2
70
0
43
0
10
20.345
20
1.41
10
20.345
20
2.41
0
LWPOLYLINE
5
143
100
AcDbEntity
8
0
6
ByLayer
62
256
370
-1
100
AcDbPolyline
90
2
70
0
43
0
10
20.37
20
2.41
42
1
10
20.32
20
2.41
42
1
0
LWPOLYLINE
5
144
100
AcDbEntity
8
0
6
ByLayer
62
256
370
-1
100
AcDbPolyline
90
2
70
0
43
0
10
20.32
20
1.41
42
1
10
20.37
20
1.41
42
1
0
LWPOLYLINE
5
145
100
AcDbEntity
8
0
6
ByLayer
62
256
370
-1
100
AcDbPolyline
90
2
70
0
43
0
10
20.345
20
3.41
10
20.345
20
4.41
0
LWPOLYLINE
5
146
100
AcDbEntity
8
0
6
ByLayer
62
256
370
-1
100
AcDbPolyline
90
2
70
0
43
0
10
20.37
20
4.41
42
1
10
20.32
20
4.41
42
1
0
LWPOLYLINE
5
147
100
AcDbEntity
8
0
6
ByLayer
62
256
370
-1
100
AcDbPolyline
90
2
70
0
43
0
10
20.32
20
3.41
42
1
10
20.37
20
3.41
42
1
0
LWPOLYLINE
5
148
100
AcDbEntity
8
0
6
ByLayer
62
256
370
-1
100
AcDbPolyline
90
2
70
0
43
0
10
20.345
20
5.41
10
20.345
20
6.41
0
LWPOLYLINE
5
149
100
AcDbEntity
8
0
6
ByLayer
62
256
370
-1
100
AcDbPolyline
90
2
70
0
43
0
10
20.37
20
6.41
42
1
10
20.32
20
6.41
42
1
0
LWPOLYLINE
5
14A
100
AcDbEntity
8
0
6
ByLayer
62
256
370
-1
100
AcDbPolyline
90
2
70
0
43
0
10
20.32
20
5.41
42
1
10
20.37
20
5.41
42
1
0
LWPOLYLINE
5
14B
100
AcDbEntity
8
0
6
ByLayer
62
256
370
-1
100
AcDbPolyline
90
2
70
0
43
0
10
20.345
20
7.41
10
20.345
20
8.41
0
LWPOLYLINE
5
14C
100
AcDbEntity
8
0
6
ByLayer
62
256
370
-1
100
AcDbPolyline
90
2
70
0
43
0
10
20.37
20
8.41
42
1
10
20.32
20
8.41
42
1
0
LWPOLYLINE
5
14D
100
AcDbEntity
8
0
6
ByLayer
62
256
370
-1
100
AcDbPolyline
90
2
70
0
43
0
10
20.32
20
7.41
42
1
10
20.37
20
7.41
42
1
0
LWPOLYLINE
5
14E
100
AcDbEntity
8
0
6
ByLayer
62
256
370
-1
100
AcDbPolyline
90
2
70
0
43
0
10
20.345
20
8.41
10
19.745
20
8.41
0
LWPOLYLINE
5
14F
100
AcDbEntity
8
0
6
ByLayer
62
256
370
-1
100
AcDbPolyline
90
2
70
0
43
0
10
19.745
20
8.435
42
1
10
19.745
20
8.385
42
1
0
LWPOLYLINE
5
150
100
AcDbEntity
8
0
6
ByLayer
62
256
370
-1
100
AcDbPolyline
90
2
70
0
43
0
10
20.345
20
8.385
42
1
10
20.345
20
8.435
42
1
0
LWPOLYLINE
5
151
100
AcDbEntity
8
0
6
ByLayer
62
256
370
-1
100
AcDbPolyline
90
2
70
0
43
0
10
18.745
20
8.41
10
18.145
20
8.41
0
LWPOLYLINE
5
152
100
AcDbEntity
8
0
6
ByLayer
62
256
370
-1
100
AcDbPolyline
90
2
70
0
43
0
10
18.145
20
8.435
42
1
10
18.145
20
8.385
42
1
0
LWPOLYLINE
5
153
100
AcDbEntity
8
0
6
ByLayer
62
256
370
-1
100
AcDbPolyline
90
2
70
0
43
0
10
18.745
20
8.385
42
1
10
18.745
20
8.435
42
1
0
LWPOLYLINE
5
154
100
AcDbEntity
8
0
6
ByLayer
62
256
370
-1
100
AcDbPolyline
90
2
70
0
43
0
10
18.145
20
8.41
10
16.145
20
8.41
0
LWPOLYLINE
5
155
100
AcDbEntity
8
0
6
ByLayer
62
256
370
-1
100
AcDbPolyline
90
2
70
0
43
0
10
16.145
20
8.435
42
1
10
16.145
20
8.385
42
1
0
LWPOLYLINE
5
156
100
AcDbEntity
8
0
6
ByLayer
62
256
370
-1
100
AcDbPolyline
90
2
70
0
43
0
10
18.145
20
8.385
42
1
10
18.145
20
8.435
42
1
0
LWPOLYLINE
5
157
100
AcDbEntity
8
0
6
ByLayer
62
256
370
-1
100
AcDbPolyline
90
2
70
0
43
0
10
16.145
20
8.41
10
15.545
20
8.41
0
LWPOLYLINE
5
158
100
AcDbEntity
8
0
6
ByLayer
62
256
370
-1
100
AcDbPolyline
90
2
70
0
43
0
10
15.545
20
8.435
42
1
10
15.545
20
8.385
42
1
0
LWPOLYLINE
5
159
100
AcDbEntity
8
0
6
ByLayer
62
256
370
-1
100
AcDbPolyline
90
2
70
0
43
0
10
16.145
20
8.385
42
1
10
16.145
20
8.435
42
1
0
LWPOLYLINE
5
15A
100
AcDbEntity
8
0
6
ByLayer
62
256
370
-1
100
AcDbPolyline
90
2
70
0
43
0
10
14.545
20
8.41
10
13.945
20
8.41
0
LWPOLYLINE
5
15B
100
AcDbEntity
8
0
6
ByLayer
62
256
370
-1
100
AcDbPolyline
90
2
70
0
43
0
10
13.945
20
8.435
42
1
10
13.945
20
8.385
42
1
0
LWPOLYLINE
5
15C
100
AcDbEntity
8
0
6
ByLayer
62
256
370
-1
100
AcDbPolyline
90
2
70
0
43
0
10
14.545
20
8.385
42
1
10
14.545
20
8.435
42
1
0
LWPOLYLINE
5
15D
100
AcDbEntity
8
0
6
ByLayer
62
256
370
-1
100
AcDbPolyline
90
2
70
0
43
0
10
18.145
20
1.41
10
18.145
20
2.41
0
LWPOLYLINE
5
15E
100
AcDbEntity
8
0
6
ByLayer
62
256
370
-1
100
AcDbPolyline
90
2
70
0
43
0
10
18.17
20
2.41
42
1
10
18.12
20
2.41
42
1
0
LWPOLYLINE
5
15F
100
AcDbEntity
8
0
6
ByLayer
62
256
370
-1
100
AcDbPolyline
90
2
70
0
43
0
10
18.12
20
1.41
42
1
10
18.17
20
1.41
42
1
0
LWPOLYLINE
5
160
100
AcDbEntity
8
0
6
ByLayer
62
256
370
-1
100
AcDbPolyline
90
2
70
0
43
0
10
18.145
20
3.41
10
18.145
20
4.41
0
LWPOLYLINE
5
161
100
AcDbEntity
8
0
6
ByLayer
62
256
370
-1
100
AcDbPolyline
90
2
70
0
43
0
10
18.17
20
4.41
42
1
10
18.12
20
4.41
42
1
0
LWPOLYLINE
5
162
100
AcDbEntity
8
0
6
ByLayer
62
256
370
-1
100
AcDbPolyline
90
2
70
0
43
0
10
18.12
20
3.41
42
1
10
18.17
20
3.41
42
1
0
LWPOLYLINE
5
163
100
AcDbEntity
8
0
6
ByLayer
62
256
370
-1
100
AcDbPolyline
90
2
70
0
43
0
10
18.145
20
5.41
10
18.145
20
6.41
0
LWPOLYLINE
5
164
100
AcDbEntity
8
0
6
ByLayer
62
256
370
-1
100
AcDbPolyline
90
2
70
0
43
0
10
18.17
20
6.41
42
1
10
18.12
20
6.41
42
1
0
LWPOLYLINE
5
165
100
AcDbEntity
8
0
6
ByLayer
62
256
370
-1
100
AcDbPolyline
90
2
70
0
43
0
10
18.12
20
5.41
42
1
10
18.17
20
5.41
42
1
0
LWPOLYLINE
5
166
100
AcDbEntity
8
0
6
ByLayer
62
256
370
-1
100
AcDbPolyline
90
2
70
0
43
0
10
18.145
20
7.41
10
18.145
20
8.41
0
LWPOLYLINE
5
167
100
AcDbEntity
8
0
6
ByLayer
62
256
370
-1
100
AcDbPolyline
90
2
70
0
43
0
10
18.17
20
8.41
42
1
10
18.12
20
8.41
42
1
0
LWPOLYLINE
5
168
100
AcDbEntity
8
0
6
ByLayer
62
256
370
-1
100
AcDbPolyline
90
2
70
0
43
0
10
18.12
20
7.41
42
1
10
18.17
20
7.41
42
1
0
LWPOLYLINE
5
169
100
AcDbEntity
8
0
6
ByLayer
62
256
370
-1
100
AcDbPolyline
90
2
70
0
43
0
10
16.145
20
1.41
10
16.145
20
2.41
0
LWPOLYLINE
5
16A
100
AcDbEntity
8
0
6
ByLayer
62
256
370
-1
100
AcDbPolyline
90
2
70
0
43
0
10
16.17
20
2.41
42
1
10
16.12
20
2.41
42
1
0
LWPOLYLINE
5
16B
100
AcDbEntity
8
0
6
ByLayer
62
256
370
-1
100
AcDbPolyline
90
2
70
0
43
0
10
16.12
20
1.41
42
1
10
16.17
20
1.41
42
1
0
LWPOLYLINE
5
16C
100
AcDbEntity
8
0
6
ByLayer
62
256
370
-1
100
AcDbPolyline
90
2
70
0
43
0
10
16.145
20
3.41
10
16.145
20
4.41
0
LWPOLYLINE
5
16D
100
AcDbEntity
8
0
6
ByLayer
62
256
370
-1
100
AcDbPolyline
90
2
70
0
43
0
10
16.17
20
4.41
42
1
10
16.12
20
4.41
42
1
0
LWPOLYLINE
5
16E
100
AcDbEntity
8
0
6
ByLayer
62
256
370
-1
100
AcDbPolyline
90
2
70
0
43
0
10
16.12
20
3.41
42
1
10
16.17
20
3.41
42
1
0
LWPOLYLINE
5
16F
100
AcDbEntity
8
0
6
ByLayer
62
256
370
-1
100
AcDbPolyline
90
2
70
0
43
0
10
16.145
20
5.41
10
16.145
20
6.41
0
LWPOLYLINE
5
170
100
AcDbEntity
8
0
6
ByLayer
62
256
370
-1
100
AcDbPolyline
90
2
70
0
43
0
10
16.17
20
6.41
42
1
10
16.12
20
6.41
42
1
0
LWPOLYLINE
5
171
100
AcDbEntity
8
0
6
ByLayer
62
256
370
-1
100
AcDbPolyline
90
2
70
0
43
0
10
16.12
20
5.41
42
1
10
16.17
20
5.41
42
1
0
LWPOLYLINE
5
172
100
AcDbEntity
8
0
6
ByLayer
62
256
370
-1
100
AcDbPolyline
90
2
70
0
43
0
10
16.145
20
7.41
10
16.145
20
8.41
0
LWPOLYLINE
5
173
100
AcDbEntity
8
0
6
ByLayer
62
256
370
-1
100
AcDbPolyline
90
2
70
0
43
0
10
16.17
20
8.41
42
1
10
16.12
20
8.41
42
1
0
LWPOLYLINE
5
174
100
AcDbEntity
8
0
6
ByLayer
62
256
370
-1
100
AcDbPolyline
90
2
70
0
43
0
10
16.12
20
7.41
42
1
10
16.17
20
7.41
42
1
0
LWPOLYLINE
5
175
100
AcDbEntity
8
0
6
ByLayer
62
256
370
-1
100
AcDbPolyline
90
2
70
0
43
0
10
16.145
20
1.41
42
1
10
18.145
20
1.41
42
1
0
LWPOLYLINE
5
176
100
AcDbEntity
8
0
6
ByLayer
62
256
370
-1
100
AcDbPolyline
90
2
70
0
43
0
10
16.17
20
1.41
42
1
10
16.12
20
1.41
42
1
0
LWPOLYLINE
5
177
100
AcDbEntity
8
0
6
ByLayer
62
256
370
-1
100
AcDbPolyline
90
2
70
0
43
0
10
18.17
20
1.41
42
1
10
18.12
20
1.41
42
1
0
LWPOLYLINE
5
178
100
AcDbEntity
8
0
6
ByLayer
62
256
370
-1
100
AcDbPolyline
90
2
70
0
43
0
10
21.645
20
-0.59
10
21.645
20
7.6
0
LWPOLYLINE
5
179
100
AcDbEntity
8
0
6
ByLayer
62
256
370
-1
100
AcDbPolyline
90
2
70
0
43
0
10
21.67
20
7.6
42
1
10
21.62
20
7.6
42
1
0
LWPOLYLINE
5
17A
100
AcDbEntity
8
0
6
ByLayer
62
256
370
-1
100
AcDbPolyline
90
2
70
0
43
0
10
21.62
20
-0.59
42
1
10
21.67
20
-0.59
42
1
0
LWPOLYLINE
5
17B
100
AcDbEntity
8
0
6
ByLayer
62
256
370
-1
100
AcDbPolyline
90
2
70
0
43
0
10
21.145
20
12.91
10
21.145
20
13.41
0
LWPOLYLINE
5
17C
100
AcDbEntity
8
0
6
ByLayer
62
256
370
-1
100
AcDbPolyline
90
2
70
0
43
0
10
21.17
20
13.41
42
1
10
21.12
20
13.41
42
1
0
LWPOLYLINE
5
17D
100
AcDbEntity
8
0
6
ByLayer
62
256
370
-1
100
AcDbPolyline
90
2
70
0
43
0
10
21.12
20
12.91
42
1
10
21.17
20
12.91
42
1
0
LWPOLYLINE
5
17E
100
AcDbEntity
8
0
6
ByLayer
62
256
370
-1
100
AcDbPolyline
90
2
70
0
43
0
10
21.145
20
13.41
10
19.495
20
13.41
0
LWPOLYLINE
5
17F
100
AcDbEntity
8
0
6
ByLayer
62
256
370
-1
100
AcDbPolyline
90
2
70
0
43
0
10
19.495
20
13.435
42
1
10
19.495
20
13.385
42
1
0
LWPOLYLINE
5
180
100
AcDbEntity
8
0
6
ByLayer
62
256
370
-1
100
AcDbPolyline
90
2
70
0
43
0
10
21.145
20
13.385
42
1
10
21.145
20
13.435
42
1
0
LWPOLYLINE
5
181
100
AcDbEntity
8
0
6
ByLayer
62
256
370
-1
100
AcDbPolyline
90
2
70
0
43
0
10
14.795
20
13.41
10
13.145
20
13.41
0
LWPOLYLINE
5
182
100
AcDbEntity
8
0
6
ByLayer
62
256
370
-1
100
AcDbPolyline
90
2
70
0
43
0
10
13.145
20
13.435
42
1
10
13.145
20
13.385
42
1
0
LWPOLYLINE
5
183
100
AcDbEntity
8
0
6
ByLayer
62
256
370
-1
100
AcDbPolyline
90
2
70
0
43
0
10
14.795
20
13.385
42
1
10
14.795
20
13.435
42
1
0
LWPOLYLINE
5
184
100
AcDbEntity
8
0
6
ByLayer
62
256
370
-1
100
AcDbPolyline
90
2
70
0
43
0
10
19.875
20
11.41
10
13.145
20
11.41
0
LWPOLYLINE
5
185
100
AcDbEntity
8
0
6
ByLayer
62
256
370
-1
100
AcDbPolyline
90
2
70
0
43
0
10
13.145
20
11.435
42
1
10
13.145
20
11.385
42
1
0
LWPOLYLINE
5
186
100
AcDbEntity
8
0
6
ByLayer
62
256
370
-1
100
AcDbPolyline
90
2
70
0
43
0
10
19.875
20
11.385
42
1
10
19.875
20
11.435
42
1
0
LWPOLYLINE
5
187
100
AcDbEntity
8
0
6
ByLayer
62
256
370
-1
100
AcDbPolyline
90
2
70
0
43
0
10
14.795
20
12.91
10
13.145
20
12.91
0
LWPOLYLINE
5
188
100
AcDbEntity
8
0
6
ByLayer
62
256
370
-1
100
AcDbPolyline
90
2
70
0
43
0
10
13.145
20
12.935
42
1
10
13.145
20
12.885
42
1
0
LWPOLYLINE
5
189
100
AcDbEntity
8
0
6
ByLayer
62
256
370
-1
100
AcDbPolyline
90
2
70
0
43
0
10
14.795
20
12.885
42
1
10
14.795
20
12.935
42
1
0
LWPOLYLINE
5
18A
100
AcDbEntity
8
0
6
ByLayer
62
256
370
-1
100
AcDbPolyline
90
2
70
0
43
0
10
21.145
20
12.91
10
19.495
20
12.91
0
LWPOLYLINE
5
18B
100
AcDbEntity
8
0
6
ByLayer
62
256
370
-1
100
AcDbPolyline
90
2
70
0
43
0
10
19.495
20
12.935
42
1
10
19.495
20
12.885
42
1
0
LWPOLYLINE
5
18C
100
AcDbEntity
8
0
6
ByLayer
62
256
370
-1
100
AcDbPolyline
90
2
70
0
43
0
10
21.145
20
12.885
42
1
10
21.145
20
12.935
42
1
0
INSERT
5
18D
100
AcDbEntity
8
51
6
ByLayer
62
256
370
-1
100
AcDbBlockReference
2
RECT
10
21.945
20
10.16
30
0
41
2.5
42
0.5
43
0
50
90
70
1
71
1
44
0
45
0
0
INSERT
5
18E
100
AcDbEntity
8
51
6
ByLayer
62
256
370
-1
100
AcDbBlockReference
2
RECT
10
17.145
20
13.16
30
0
41
0.5
42
3
43
0
50
90
70
1
71
1
44
0
45
0
0
INSERT
5
18F
100
AcDbEntity
8
51
6
ByLayer
62
256
370
-1
100
AcDbBlockReference
2
RECT
10
17.145
20
7.16
30
0
41
0.2
42
2.5
43
0
50
90
70
1
71
1
44
0
45
0
0
INSERT
5
190
100
AcDbEntity
8
17
6
ByLayer
62
256
370
-1
100
AcDbBlockReference
2
LONGP100
10
17.145
20
7.16
30
0
41
2.1844
42
2.1844
43
0
50
180
70
1
71
1
44
0
45
0
0
INSERT
5
191
100
AcDbEntity
8
17
6
ByLayer
62
256
370
-1
100
AcDbBlockReference
2
LONGP100
10
17.145
20
7.16
30
0
41
2.1844
42
2.1844
43
0
50
180
70
1
71
1
44
0
45
0
0
INSERT
5
192
100
AcDbEntity
8
17
6
ByLayer
62
256
370
-1
100
AcDbBlockReference
2
LONGP100
10
21.945
20
10.16
30
0
41
2.1844
42
2.1844
43
0
50
90
70
1
71
1
44
0
45
0
0
INSERT
5
193
100
AcDbEntity
8
17
6
ByLayer
62
256
370
-1
100
AcDbBlockReference
2
LONGP100
10
21.945
20
10.16
30
0
41
2.1844
42
2.1844
43
0
50
90
70
1
71
1
44
0
45
0
0
INSERT
5
194
100
AcDbEntity
8
17
6
ByLayer
62
256
370
-1
100
AcDbBlockReference
2
LONGP100
10
17.145
20
13.16
30
0
41
2.1844
42
2.1844
43
0
50
180
70
1
71
1
44
0
45
0
0
INSERT
5
195
100
AcDbEntity
8
17
6
ByLayer
62
256
370
-1
100
AcDbBlockReference
2
LONGP100
10
17.145
20
13.16
30
0
41
2.1844
42
2.1844
43
0
50
180
70
1
71
1
44
0
45
0
0
POINT
5
196
100
AcDbEntity
8
23
6
ByLayer
62
256
370
-1
100
AcDbPoint
10
46
20
43.18
0
LINE
5
197
100
AcDbEntity
8
20
6
ByLayer
62
256
370
-1
100
AcDbLine
10
51.588
20
43.18
11
40.412
21
43.18
0
LWPOLYLINE
5
198
100
AcDbEntity
8
0
6
ByLayer
62
256
370
-1
100
AcDbPolyline
90
2
70
0
43
0
10
41.35
20
44.73
10
44
20
44.73
0
LWPOLYLINE
5
199
100
AcDbEntity
8
0
6
ByLayer
62
256
370
-1
100
AcDbPolyline
90
2
70
0
43
0
10
44
20
44.6792
42
1
10
44
20
44.7808
42
1
0
LWPOLYLINE
5
19A
100
AcDbEntity
8
0
6
ByLayer
62
256
370
-1
100
AcDbPolyline
90
2
70
0
43
0
10
41.35
20
44.7808
42
1
10
41.35
20
44.6792
42
1
0
LWPOLYLINE
5
19B
100
AcDbEntity
8
0
6
ByLayer
62
256
370
-1
100
AcDbPolyline
90
2
70
0
43
0
10
44
20
44.73
10
44
20
46.88
0
LWPOLYLINE
5
19C
100
AcDbEntity
8
0
6
ByLayer
62
256
370
-1
100
AcDbPolyline
90
2
70
0
43
0
10
44.0508
20
46.88
42
1
10
43.9492
20
46.88
42
1
0
LWPOLYLINE
5
19D
100
AcDbEntity
8
0
6
ByLayer
62
256
370
-1
100
AcDbPolyline
90
2
70
0
43
0
10
43.9492
20
44.73
42
1
10
44.0508
20
44.73
42
1
0
LWPOLYLINE
5
19E
100
AcDbEntity
8
0
6
ByLayer
62
256
370
-1
100
AcDbPolyline
90
2
70
0
43
0
10
44
20
46.88
10
43.25
20
47.63
0
LWPOLYLINE
5
19F
100
AcDbEntity
8
0
6
ByLayer
62
256
370
-1
100
AcDbPolyline
90
2
70
0
43
0
10
43.2859
20
47.6659
42
1
10
43.2141
20
47.5941
42
1
0
LWPOLYLINE
5
1A0
100
AcDbEntity
8
0
6
ByLayer
62
256
370
-1
100
AcDbPolyline
90
2
70
0
43
0
10
43.9641
20
46.8441
42
1
10
44.0359
20
46.9159
42
1
0
LWPOLYLINE
5
1A1
100
AcDbEntity
8
0
6
ByLayer
62
256
370
-1
100
AcDbPolyline
90
2
70
0
43
0
10
43.25
20
47.63
10
43.25
20
51.43
0
LWPOLYLINE
5
1A2
100
AcDbEntity
8
0
6
ByLayer
62
256
370
-1
100
AcDbPolyline
90
2
70
0
43
0
10
43.3008
20
51.43
42
1
10
43.1992
20
51.43
42
1
0
LWPOLYLINE
5
1A3
100
AcDbEntity
8
0
6
ByLayer
62
256
370
-1
100
AcDbPolyline
90
2
70
0
43
0
10
43.1992
20
47.63
42
1
10
43.3008
20
47.63
42
1
0
LWPOLYLINE
5
1A4
100
AcDbEntity
8
0
6
ByLayer
62
256
370
-1
100
AcDbPolyline
90
2
70
0
43
0
10
43.25
20
51.43
10
44.1
20
51.43
0
LWPOLYLINE
5
1A5
100
AcDbEntity
8
0
6
ByLayer
62
256
370
-1
100
AcDbPolyline
90
2
70
0
43
0
10
44.1
20
51.3792
42
1
10
44.1
20
51.4808
42
1
0
LWPOLYLINE
5
1A6
100
AcDbEntity
8
0
6
ByLayer
62
256
370
-1
100
AcDbPolyline
90
2
70
0
43
0
10
43.25
20
51.4808
42
1
10
43.25
20
51.3792
42
1
0
LWPOLYLINE
5
1A7
100
AcDbEntity
8
0
6
ByLayer
62
256
370
-1
100
AcDbPolyline
90
2
70
0
43
0
10
44.1
20
51.43
10
44.1
20
52.605
0
LWPOLYLINE
5
1A8
100
AcDbEntity
8
0
6
ByLayer
62
256
370
-1
100
AcDbPolyline
90
2
70
0
43
0
10
44.1508
20
52.605
42
1
10
44.0492
20
52.605
42
1
0
LWPOLYLINE
5
1A9
100
AcDbEntity
8
0
6
ByLayer
62
256
370
-1
100
AcDbPolyline
90
2
70
0
43
0
10
44.0492
20
51.43
42
1
10
44.1508
20
51.43
42
1
0
LWPOLYLINE
5
1AA
100
AcDbEntity
8
0
6
ByLayer
62
256
370
-1
100
AcDbPolyline
90
2
70
0
43
0
10
44.1
20
52.605
10
47.9
20
52.605
0
LWPOLYLINE
5
1AB
100
AcDbEntity
8
0
6
ByLayer
62
256
370
-1
100
AcDbPolyline
90
2
70
0
43
0
10
47.9
20
52.5542
42
1
10
47.9
20
52.6558
42
1
0
LWPOLYLINE
5
1AC
100
AcDbEntity
8
0
6
ByLayer
62
256
370
-1
100
AcDbPolyline
90
2
70
0
43
0
10
44.1
20
52.6558
42
1
10
44.1
20
52.5542
42
1
0
LWPOLYLINE
5
1AD
100
AcDbEntity
8
0
6
ByLayer
62
256
370
-1
100
AcDbPolyline
90
2
70
0
43
0
10
47.9
20
52.605
10
47.9
20
51.43
0
LWPOLYLINE
5
1AE
100
AcDbEntity
8
0
6
ByLayer
62
256
370
-1
100
AcDbPolyline
90
2
70
0
43
0
10
47.8492
20
51.43
42
1
10
47.9508
20
51.43
42
1
0
LWPOLYLINE
5
1AF
100
AcDbEntity
8
0
6
ByLayer
62
256
370
-1
100
AcDbPolyline
90
2
70
0
43
0
10
47.9508
20
52.605
42
1
10
47.8492
20
52.605
42
1
0
LWPOLYLINE
5
1B0
100
AcDbEntity
8
0
6
ByLayer
62
256
370
-1
100
AcDbPolyline
90
2
70
0
43
0
10
47.9
20
51.43
10
48.75
20
51.43
0
LWPOLYLINE
5
1B1
100
AcDbEntity
8
0
6
ByLayer
62
256
370
-1
100
AcDbPolyline
90
2
70
0
43
0
10
48.75
20
51.3792
42
1
10
48.75
20
51.4808
42
1
0
LWPOLYLINE
5
1B2
100
AcDbEntity
8
0
6
ByLayer
62
256
370
-1
100
AcDbPolyline
90
2
70
0
43
0
10
47.9
20
51.4808
42
1
10
47.9
20
51.3792
42
1
0
LWPOLYLINE
5
1B3
100
AcDbEntity
8
0
6
ByLayer
62
256
370
-1
100
AcDbPolyline
90
2
70
0
43
0
10
48.75
20
51.43
10
48.75
20
47.63
0
LWPOLYLINE
5
1B4
100
AcDbEntity
8
0
6
ByLayer
62
256
370
-1
100
AcDbPolyline
90
2
70
0
43
0
10
48.6992
20
47.63
42
1
10
48.8008
20
47.63
42
1
0
LWPOLYLINE
5
1B5
100
AcDbEntity
8
0
6
ByLayer
62
256
370
-1
100
AcDbPolyline
90
2
70
0
43
0
10
48.8008
20
51.43
42
1
10
48.6992
20
51.43
42
1
0
LWPOLYLINE
5
1B6
100
AcDbEntity
8
0
6
ByLayer
62
256
370
-1
100
AcDbPolyline
90
2
70
0
43
0
10
48.75
20
47.63
10
48
20
46.88
0
LWPOLYLINE
5
1B7
100
AcDbEntity
8
0
6
ByLayer
62
256
370
-1
100
AcDbPolyline
90
2
70
0
43
0
10
47.9641
20
46.9159
42
1
10
48.0359
20
46.8441
42
1
0
LWPOLYLINE
5
1B8
100
AcDbEntity
8
0
6
ByLayer
62
256
370
-1
100
AcDbPolyline
90
2
70
0
43
0
10
48.7859
20
47.5941
42
1
10
48.7141
20
47.6659
42
1
0
LWPOLYLINE
5
1B9
100
AcDbEntity
8
0
6
ByLayer
62
256
370
-1
100
AcDbPolyline
90
2
70
0
43
0
10
48
20
46.88
10
48
20
44.73
0
LWPOLYLINE
5
1BA
100
AcDbEntity
8
0
6
ByLayer
62
256
370
-1
100
AcDbPolyline
90
2
70
0
43
0
10
47.9492
20
44.73
42
1
10
48.0508
20
44.73
42
1
0
LWPOLYLINE
5
1BB
100
AcDbEntity
8
0
6
ByLayer
62
256
370
-1
100
AcDbPolyline
90
2
70
0
43
0
10
48.0508
20
46.88
42
1
10
47.9492
20
46.88
42
1
0
LWPOLYLINE
5
1BC
100
AcDbEntity
8
0
6
ByLayer
62
256
370
-1
100
AcDbPolyline
90
2
70
0
43
0
10
48
20
44.73
10
50.65
20
44.73
0
LWPOLYLINE
5
1BD
100
AcDbEntity
8
0
6
ByLayer
62
256
370
-1
100
AcDbPolyline
90
2
70
0
43
0
10
50.65
20
44.6792
42
1
10
50.65
20
44.7808
42
1
0
LWPOLYLINE
5
1BE
100
AcDbEntity
8
0
6
ByLayer
62
256
370
-1
100
AcDbPolyline
90
2
70
0
43
0
10
48
20
44.7808
42
1
10
48
20
44.6792
42
1
0
LWPOLYLINE
5
1BF
100
AcDbEntity
8
0
6
ByLayer
62
256
370
-1
100
AcDbPolyline
90
2
70
0
43
0
10
42.15
20
43.28
10
49.85
20
43.28
0
LWPOLYLINE
5
1C0
100
AcDbEntity
8
0
6
ByLayer
62
256
370
-1
100
AcDbPolyline
90
2
70
0
43
0
10
49.85
20
43.2292
42
1
10
49.85
20
43.3308
42
1
0
LWPOLYLINE
5
1C1
100
AcDbEntity
8
0
6
ByLayer
62
256
370
-1
100
AcDbPolyline
90
2
70
0
43
0
10
42.15
20
43.3308
42
1
10
42.15
20
43.2292
42
1
0
LWPOLYLINE
5
1C2
100
AcDbEntity
8
0
6
ByLayer
62
256
370
-1
100
AcDbPolyline
90
2
70
0
43
0
10
50.65
20
44.73
10
50.65
20
43.28
0
LWPOLYLINE
5
1C3
100
AcDbEntity
8
0
6
ByLayer
62
256
370
-1
100
AcDbPolyline
90
2
70
0
43
0
10
50.5992
20
43.28
42
1
10
50.7008
20
43.28
42
1
0
LWPOLYLINE
5
1C4
100
AcDbEntity
8
0
6
ByLayer
62
256
370
-1
100
AcDbPolyline
90
2
70
0
43
0
10
50.7008
20
44.73
42
1
10
50.5992
20
44.73
42
1
0
LWPOLYLINE
5
1C5
100
AcDbEntity
8
0
6
ByLayer
62
256
370
-1
100
AcDbPolyline
90
2
70
0
43
0
10
41.35
20
43.28
10
41.35
20
44.73
0
LWPOLYLINE
5
1C6
100
AcDbEntity
8
0
6
ByLayer
62
256
370
-1
100
AcDbPolyline
90
2
70
0
43
0
10
41.4008
20
44.73
42
1
10
41.2992
20
44.73
42
1
0
LWPOLYLINE
5
1C7
100
AcDbEntity
8
0
6
ByLayer
62
256
370
-1
100
AcDbPolyline
90
2
70
0
43
0
10
41.2992
20
43.28
42
1
10
41.4008
20
43.28
42
1
0
LWPOLYLINE
5
1C8
100
AcDbEntity
8
0
6
ByLayer
62
256
370
-1
100
AcDbPolyline
90
2
70
0
43
0
10
50.65
20
44.73
10
50.65
20
38.53
0
LWPOLYLINE
5
1C9
100
AcDbEntity
8
0
6
ByLayer
62
256
370
-1
100
AcDbPolyline
90
2
70
0
43
0
10
50.5992
20
38.53
42
1
10
50.7008
20
38.53
42
1
0
LWPOLYLINE
5
1CA
100
AcDbEntity
8
0
6
ByLayer
62
256
370
-1
100
AcDbPolyline
90
2
70
0
43
0
10
50.7008
20
44.73
42
1
10
50.5992
20
44.73
42
1
0
LWPOLYLINE
5
1CB
100
AcDbEntity
8
0
6
ByLayer
62
256
370
-1
100
AcDbPolyline
90
2
70
0
43
0
10
41.35
20
38.53
10
41.35
20
44.73
0
LWPOLYLINE
5
1CC
100
AcDbEntity
8
0
6
ByLayer
62
256
370
-1
100
AcDbPolyline
90
2
70
0
43
0
10
41.4008
20
44.73
42
1
10
41.2992
20
44.73
42
1
0
LWPOLYLINE
5
1CD
100
AcDbEntity
8
0
6
ByLayer
62
256
370
-1
100
AcDbPolyline
90
2
70
0
43
0
10
41.2992
20
38.53
42
1
10
41.4008
20
38.53
42
1
0
LWPOLYLINE
5
1CE
100
AcDbEntity
8
0
6
ByLayer
62
256
370
-1
100
AcDbPolyline
90
2
70
0
43
0
10
41.35
20
38.53
10
42.15
20
38.53
0
LWPOLYLINE
5
1CF
100
AcDbEntity
8
0
6
ByLayer
62
256
370
-1
100
AcDbPolyline
90
2
70
0
43
0
10
42.15
20
38.4792
42
1
10
42.15
20
38.5808
42
1
0
LWPOLYLINE
5
1D0
100
AcDbEntity
8
0
6
ByLayer
62
256
370
-1
100
AcDbPolyline
90
2
70
0
43
0
10
41.35
20
38.5808
42
1
10
41.35
20
38.4792
42
1
0
LWPOLYLINE
5
1D1
100
AcDbEntity
8
0
6
ByLayer
62
256
370
-1
100
AcDbPolyline
90
2
70
0
43
0
10
42.15
20
38.53
10
42.15
20
43.28
0
LWPOLYLINE
5
1D2
100
AcDbEntity
8
0
6
ByLayer
62
256
370
-1
100
AcDbPolyline
90
2
70
0
43
0
10
42.2008
20
43.28
42
1
10
42.0992
20
43.28
42
1
0
LWPOLYLINE
5
1D3
100
AcDbEntity
8
0
6
ByLayer
62
256
370
-1
100
AcDbPolyline
90
2
70
0
43
0
10
42.0992
20
38.53
42
1
10
42.2008
20
38.53
42
1
0
LWPOLYLINE
5
1D4
100
AcDbEntity
8
0
6
ByLayer
62
256
370
-1
100
AcDbPolyline
90
2
70
0
43
0
10
49.85
20
43.28
10
49.85
20
38.53
0
LWPOLYLINE
5
1D5
100
AcDbEntity
8
0
6
ByLayer
62
256
370
-1
100
AcDbPolyline
90
2
70
0
43
0
10
49.7992
20
38.53
42
1
10
49.9008
20
38.53
42
1
0
LWPOLYLINE
5
1D6
100
AcDbEntity
8
0
6
ByLayer
62
256
370
-1
100
AcDbPolyline
90
2
70
0
43
0
10
49.9008
20
43.28
42
1
10
49.7992
20
43.28
42
1
0
LWPOLYLINE
5
1D7
100
AcDbEntity
8
0
6
ByLayer
62
256
370
-1
100
AcDbPolyline
90
2
70
0
43
0
10
49.85
20
38.53
10
50.65
20
38.53
0
LWPOLYLINE
5
1D8
100
AcDbEntity
8
0
6
ByLayer
62
256
370
-1
100
AcDbPolyline
90
2
70
0
43
0
10
50.65
20
38.4792
42
1
10
50.65
20
38.5808
42
1
0
LWPOLYLINE
5
1D9
100
AcDbEntity
8
0
6
ByLayer
62
256
370
-1
100
AcDbPolyline
90
2
70
0
43
0
10
49.85
20
38.5808
42
1
10
49.85
20
38.4792
42
1
0
INSERT
5
1DA
100
AcDbEntity
8
51
6
ByLayer
62
256
370
-1
100
AcDbBlockReference
2
RECT
10
46
20
41.1675
30
0
41
4.075
42
1
43
0
50
270
70
1
71
1
44
0
45
0
0
INSERT
5
1DB
100
AcDbEntity
8
1
6
ByLayer
62
256
370
-1
100
AcDbBlockReference
2
RECT
10
46
20
40.6146
30
0
41
5.08
42
1.143
43
0
50
270
70
1
71
1
44
0
45
0
0
INSERT
5
1DC
100
AcDbEntity
8
1
6
ByLayer
62
256
370
-1
100
AcDbBlockReference
2
RECT
10
50.4196
20
40.6146
30
0
41
5.08
42
2.286
43
0
50
270
70
1
71
1
44
0
45
0
0
INSERT
5
1DD
100
AcDbEntity
8
1
6
ByLayer
62
256
370
-1
100
AcDbBlockReference
2
RECT
10
41.5804
20
40.6146
30
0
41
5.08
42
2.286
43
0
50
270
70
1
71
1
44
0
45
0
0
INSERT
5
1DE
100
AcDbEntity
8
16
6
ByLayer
62
256
370
-1
100
AcDbBlockReference
2
RECT
10
50.4196
20
40.6146
30
0
41
5.08
42
2.286
43
0
50
270
70
1
71
1
44
0
45
0
0
INSERT
5
1DF
100
AcDbEntity
8
16
6
ByLayer
62
256
370
-1
100
AcDbBlockReference
2
RECT
10
41.5804
20
40.6146
30
0
41
5.08
42
2.286
43
0
50
270
70
1
71
1
44
0
45
0
0
POINT
5
1E0
100
AcDbEntity
8
23
6
ByLayer
62
256
370
-1
100
AcDbPoint
10
59.59
20
43.18
0
LINE
5
1E1
100
AcDbEntity
8
20
6
ByLayer
62
256
370
-1
100
AcDbLine
10
65.178
20
43.18
11
54.002
21
43.18
0
LWPOLYLINE
5
1E2
100
AcDbEntity
8
0
6
ByLayer
62
256
370
-1
100
AcDbPolyline
90
2
70
0
43
0
10
54.94
20
44.73
10
57.59
20
44.73
0
LWPOLYLINE
5
1E3
100
AcDbEntity
8
0
6
ByLayer
62
256
370
-1
100
AcDbPolyline
90
2
70
0
43
0
10
57.59
20
44.6792
42
1
10
57.59
20
44.7808
42
1
0
LWPOLYLINE
5
1E4
100
AcDbEntity
8
0
6
ByLayer
62
256
370
-1
100
AcDbPolyline
90
2
70
0
43
0
10
54.94
20
44.7808
42
1
10
54.94
20
44.6792
42
1
0
LWPOLYLINE
5
1E5
100
AcDbEntity
8
0
6
ByLayer
62
256
370
-1
100
AcDbPolyline
90
2
70
0
43
0
10
57.59
20
44.73
10
57.59
20
46.88
0
LWPOLYLINE
5
1E6
100
AcDbEntity
8
0
6
ByLayer
62
256
370
-1
100
AcDbPolyline
90
2
70
0
43
0
10
57.6408
20
46.88
42
1
10
57.5392
20
46.88
42
1
0
LWPOLYLINE
5
1E7
100
AcDbEntity
8
0
6
ByLayer
62
256
370
-1
100
AcDbPolyline
90
2
70
0
43
0
10
57.5392
20
44.73
42
1
10
57.6408
20
44.73
42
1
0
LWPOLYLINE
5
1E8
100
AcDbEntity
8
0
6
ByLayer
62
256
370
-1
100
AcDbPolyline
90
2
70
0
43
0
10
57.59
20
46.88
10
56.84
20
47.63
0
LWPOLYLINE
5
1E9
100
AcDbEntity
8
0
6
ByLayer
62
256
370
-1
100
AcDbPolyline
90
2
70
0
43
0
10
56.8759
20
47.6659
42
1
10
56.8041
20
47.5941
42
1
0
LWPOLYLINE
5
1EA
100
AcDbEntity
8
0
6
ByLayer
62
256
370
-1
100
AcDbPolyline
90
2
70
0
43
0
10
57.5541
20
46.8441
42
1
10
57.6259
20
46.9159
42
1
0
LWPOLYLINE
5
1EB
100
AcDbEntity
8
0
6
ByLayer
62
256
370
-1
100
AcDbPolyline
90
2
70
0
43
0
10
56.84
20
47.63
10
56.84
20
51.43
0
LWPOLYLINE
5
1EC
100
AcDbEntity
8
0
6
ByLayer
62
256
370
-1
100
AcDbPolyline
90
2
70
0
43
0
10
56.8908
20
51.43
42
1
10
56.7892
20
51.43
42
1
0
LWPOLYLINE
5
1ED
100
AcDbEntity
8
0
6
ByLayer
62
256
370
-1
100
AcDbPolyline
90
2
70
0
43
0
10
56.7892
20
47.63
42
1
10
56.8908
20
47.63
42
1
0
LWPOLYLINE
5
1EE
100
AcDbEntity
8
0
6
ByLayer
62
256
370
-1
100
AcDbPolyline
90
2
70
0
43
0
10
56.84
20
51.43
10
57.69
20
51.43
0
LWPOLYLINE
5
1EF
100
AcDbEntity
8
0
6
ByLayer
62
256
370
-1
100
AcDbPolyline
90
2
70
0
43
0
10
57.69
20
51.3792
42
1
10
57.69
20
51.4808
42
1
0
LWPOLYLINE
5
1F0
100
AcDbEntity
8
0
6
ByLayer
62
256
370
-1
100
AcDbPolyline
90
2
70
0
43
0
10
56.84
20
51.4808
42
1
10
56.84
20
51.3792
42
1
0
LWPOLYLINE
5
1F1
100
AcDbEntity
8
0
6
ByLayer
62
256
370
-1
100
AcDbPolyline
90
2
70
0
43
0
10
57.69
20
51.43
10
57.69
20
52.605
0
LWPOLYLINE
5
1F2
100
AcDbEntity
8
0
6
ByLayer
62
256
370
-1
100
AcDbPolyline
90
2
70
0
43
0
10
57.7408
20
52.605
42
1
10
57.6392
20
52.605
42
1
0
LWPOLYLINE
5
1F3
100
AcDbEntity
8
0
6
ByLayer
62
256
370
-1
100
AcDbPolyline
90
2
70
0
43
0
10
57.6392
20
51.43
42
1
10
57.7408
20
51.43
42
1
0
LWPOLYLINE
5
1F4
100
AcDbEntity
8
0
6
ByLayer
62
256
370
-1
100
AcDbPolyline
90
2
70
0
43
0
10
57.69
20
52.605
10
61.49
20
52.605
0
LWPOLYLINE
5
1F5
100
AcDbEntity
8
0
6
ByLayer
62
256
370
-1
100
AcDbPolyline
90
2
70
0
43
0
10
61.49
20
52.5542
42
1
10
61.49
20
52.6558
42
1
0
LWPOLYLINE
5
1F6
100
AcDbEntity
8
0
6
ByLayer
62
256
370
-1
100
AcDbPolyline
90
2
70
0
43
0
10
57.69
20
52.6558
42
1
10
57.69
20
52.5542
42
1
0
LWPOLYLINE
5
1F7
100
AcDbEntity
8
0
6
ByLayer
62
256
370
-1
100
AcDbPolyline
90
2
70
0
43
0
10
61.49
20
52.605
10
61.49
20
51.43
0
LWPOLYLINE
5
1F8
100
AcDbEntity
8
0
6
ByLayer
62
256
370
-1
100
AcDbPolyline
90
2
70
0
43
0
10
61.4392
20
51.43
42
1
10
61.5408
20
51.43
42
1
0
LWPOLYLINE
5
1F9
100
AcDbEntity
8
0
6
ByLayer
62
256
370
-1
100
AcDbPolyline
90
2
70
0
43
0
10
61.5408
20
52.605
42
1
10
61.4392
20
52.605
42
1
0
LWPOLYLINE
5
1FA
100
AcDbEntity
8
0
6
ByLayer
62
256
370
-1
100
AcDbPolyline
90
2
70
0
43
0
10
61.49
20
51.43
10
62.34
20
51.43
0
LWPOLYLINE
5
1FB
100
AcDbEntity
8
0
6
ByLayer
62
256
370
-1
100
AcDbPolyline
90
2
70
0
43
0
10
62.34
20
51.3792
42
1
10
62.34
20
51.4808
42
1
0
LWPOLYLINE
5
1FC
100
AcDbEntity
8
0
6
ByLayer
62
256
370
-1
100
AcDbPolyline
90
2
70
0
43
0
10
61.49
20
51.4808
42
1
10
61.49
20
51.3792
42
1
0
LWPOLYLINE
5
1FD
100
AcDbEntity
8
0
6
ByLayer
62
256
370
-1
100
AcDbPolyline
90
2
70
0
43
0
10
62.34
20
51.43
10
62.34
20
47.63
0
LWPOLYLINE
5
1FE
100
AcDbEntity
8
0
6
ByLayer
62
256
370
-1
100
AcDbPolyline
90
2
70
0
43
0
10
62.2892
20
47.63
42
1
10
62.3908
20
47.63
42
1
0
LWPOLYLINE
5
1FF
100
AcDbEntity
8
0
6
ByLayer
62
256
370
-1
100
AcDbPolyline
90
2
70
0
43
0
10
62.3908
20
51.43
42
1
10
62.2892
20
51.43
42
1
0
LWPOLYLINE
5
200
100
AcDbEntity
8
0
6
ByLayer
62
256
370
-1
100
AcDbPolyline
90
2
70
0
43
0
10
62.34
20
47.63
10
61.59
20
46.88
0
LWPOLYLINE
5
201
100
AcDbEntity
8
0
6
ByLayer
62
256
370
-1
100
AcDbPolyline
90
2
70
0
43
0
10
61.5541
20
46.9159
42
1
10
61.6259
20
46.8441
42
1
0
LWPOLYLINE
5
202
100
AcDbEntity
8
0
6
ByLayer
62
256
370
-1
100
AcDbPolyline
90
2
70
0
43
0
10
62.3759
20
47.5941
42
1
10
62.3041
20
47.6659
42
1
0
LWPOLYLINE
5
203
100
AcDbEntity
8
0
6
ByLayer
62
256
370
-1
100
AcDbPolyline
90
2
70
0
43
0
10
61.59
20
46.88
10
61.59
20
44.73
0
LWPOLYLINE
5
204
100
AcDbEntity
8
0
6
ByLayer
62
256
370
-1
100
AcDbPolyline
90
2
70
0
43
0
10
61.5392
20
44.73
42
1
10
61.6408
20
44.73
42
1
0
LWPOLYLINE
5
205
100
AcDbEntity
8
0
6
ByLayer
62
256
370
-1
100
AcDbPolyline
90
2
70
0
43
0
10
61.6408
20
46.88
42
1
10
61.5392
20
46.88
42
1
0
LWPOLYLINE
5
206
100
AcDbEntity
8
0
6
ByLayer
62
256
370
-1
100
AcDbPolyline
90
2
70
0
43
0
10
61.59
20
44.73
10
64.24
20
44.73
0
LWPOLYLINE
5
207
100
AcDbEntity
8
0
6
ByLayer
62
256
370
-1
100
AcDbPolyline
90
2
70
0
43
0
10
64.24
20
44.6792
42
1
10
64.24
20
44.7808
42
1
0
LWPOLYLINE
5
208
100
AcDbEntity
8
0
6
ByLayer
62
256
370
-1
100
AcDbPolyline
90
2
70
0
43
0
10
61.59
20
44.7808
42
1
10
61.59
20
44.6792
42
1
0
LWPOLYLINE
5
209
100
AcDbEntity
8
0
6
ByLayer
62
256
370
-1
100
AcDbPolyline
90
2
70
0
43
0
10
55.74
20
43.28
10
63.44
20
43.28
0
LWPOLYLINE
5
20A
100
AcDbEntity
8
0
6
ByLayer
62
256
370
-1
100
AcDbPolyline
90
2
70
0
43
0
10
63.44
20
43.2292
42
1
10
63.44
20
43.3308
42
1
0
LWPOLYLINE
5
20B
100
AcDbEntity
8
0
6
ByLayer
62
256
370
-1
100
AcDbPolyline
90
2
70
0
43
0
10
55.74
20
43.3308
42
1
10
55.74
20
43.2292
42
1
0
LWPOLYLINE
5
20C
100
AcDbEntity
8
0
6
ByLayer
62
256
370
-1
100
AcDbPolyline
90
2
70
0
43
0
10
64.24
20
44.73
10
64.24
20
43.28
0
LWPOLYLINE
5
20D
100
AcDbEntity
8
0
6
ByLayer
62
256
370
-1
100
AcDbPolyline
90
2
70
0
43
0
10
64.1892
20
43.28
42
1
10
64.2908
20
43.28
42
1
0
LWPOLYLINE
5
20E
100
AcDbEntity
8
0
6
ByLayer
62
256
370
-1
100
AcDbPolyline
90
2
70
0
43
0
10
64.2908
20
44.73
42
1
10
64.1892
20
44.73
42
1
0
LWPOLYLINE
5
20F
100
AcDbEntity
8
0
6
ByLayer
62
256
370
-1
100
AcDbPolyline
90
2
70
0
43
0
10
54.94
20
43.28
10
54.94
20
44.73
0
LWPOLYLINE
5
210
100
AcDbEntity
8
0
6
ByLayer
62
256
370
-1
100
AcDbPolyline
90
2
70
0
43
0
10
54.9908
20
44.73
42
1
10
54.8892
20
44.73
42
1
0
LWPOLYLINE
5
211
100
AcDbEntity
8
0
6
ByLayer
62
256
370
-1
100
AcDbPolyline
90
2
70
0
43
0
10
54.8892
20
43.28
42
1
10
54.9908
20
43.28
42
1
0
LWPOLYLINE
5
212
100
AcDbEntity
8
0
6
ByLayer
62
256
370
-1
100
AcDbPolyline
90
2
70
0
43
0
10
64.24
20
44.73
10
64.24
20
38.53
0
LWPOLYLINE
5
213
100
AcDbEntity
8
0
6
ByLayer
62
256
370
-1
100
AcDbPolyline
90
2
70
0
43
0
10
64.1892
20
38.53
42
1
10
64.2908
20
38.53
42
1
0
LWPOLYLINE
5
214
100
AcDbEntity
8
0
6
ByLayer
62
256
370
-1
100
AcDbPolyline
90
2
70
0
43
0
10
64.2908
20
44.73
42
1
10
64.1892
20
44.73
42
1
0
LWPOLYLINE
5
215
100
AcDbEntity
8
0
6
ByLayer
62
256
370
-1
100
AcDbPolyline
90
2
70
0
43
0
10
54.94
20
38.53
10
54.94
20
44.73
0
LWPOLYLINE
5
216
100
AcDbEntity
8
0
6
ByLayer
62
256
370
-1
100
AcDbPolyline
90
2
70
0
43
0
10
54.9908
20
44.73
42
1
10
54.8892
20
44.73
42
1
0
LWPOLYLINE
5
217
100
AcDbEntity
8
0
6
ByLayer
62
256
370
-1
100
AcDbPolyline
90
2
70
0
43
0
10
54.8892
20
38.53
42
1
10
54.9908
20
38.53
42
1
0
LWPOLYLINE
5
218
100
AcDbEntity
8
0
6
ByLayer
62
256
370
-1
100
AcDbPolyline
90
2
70
0
43
0
10
54.94
20
38.53
10
55.74
20
38.53
0
LWPOLYLINE
5
219
100
AcDbEntity
8
0
6
ByLayer
62
256
370
-1
100
AcDbPolyline
90
2
70
0
43
0
10
55.74
20
38.4792
42
1
10
55.74
20
38.5808
42
1
0
LWPOLYLINE
5
21A
100
AcDbEntity
8
0
6
ByLayer
62
256
370
-1
100
AcDbPolyline
90
2
70
0
43
0
10
54.94
20
38.5808
42
1
10
54.94
20
38.4792
42
1
0
LWPOLYLINE
5
21B
100
AcDbEntity
8
0
6
ByLayer
62
256
370
-1
100
AcDbPolyline
90
2
70
0
43
0
10
55.74
20
38.53
10
55.74
20
43.28
0
LWPOLYLINE
5
21C
100
AcDbEntity
8
0
6
ByLayer
62
256
370
-1
100
AcDbPolyline
90
2
70
0
43
0
10
55.7908
20
43.28
42
1
10
55.6892
20
43.28
42
1
0
LWPOLYLINE
5
21D
100
AcDbEntity
8
0
6
ByLayer
62
256
370
-1
100
AcDbPolyline
90
2
70
0
43
0
10
55.6892
20
38.53
42
1
10
55.7908
20
38.53
42
1
0
LWPOLYLINE
5
21E
100
AcDbEntity
8
0
6
ByLayer
62
256
370
-1
100
AcDbPolyline
90
2
70
0
43
0
10
63.44
20
43.28
10
63.44
20
38.53
0
LWPOLYLINE
5
21F
100
AcDbEntity
8
0
6
ByLayer
62
256
370
-1
100
AcDbPolyline
90
2
70
0
43
0
10
63.3892
20
38.53
42
1
10
63.4908
20
38.53
42
1
0
LWPOLYLINE
5
220
100
AcDbEntity
8
0
6
ByLayer
62
256
370
-1
100
AcDbPolyline
90
2
70
0
43
0
10
63.4908
20
43.28
42
1
10
63.3892
20
43.28
42
1
0
LWPOLYLINE
5
221
100
AcDbEntity
8
0
6
ByLayer
62
256
370
-1
100
AcDbPolyline
90
2
70
0
43
0
10
63.44
20
38.53
10
64.24
20
38.53
0
LWPOLYLINE
5
222
100
AcDbEntity
8
0
6
ByLayer
62
256
370
-1
100
AcDbPolyline
90
2
70
0
43
0
10
64.24
20
38.4792
42
1
10
64.24
20
38.5808
42
1
0
LWPOLYLINE
5
223
100
AcDbEntity
8
0
6
ByLayer
62
256
370
-1
100
AcDbPolyline
90
2
70
0
43
0
10
63.44
20
38.5808
42
1
10
63.44
20
38.4792
42
1
0
INSERT
5
224
100
AcDbEntity
8
51
6
ByLayer
62
256
370
-1
100
AcDbBlockReference
2
RECT
10
59.59
20
41.1675
30
0
41
4.075
42
1
43
0
50
270
70
1
71
1
44
0
45
0
0
INSERT
5
225
100
AcDbEntity
8
1
6
ByLayer
62
256
370
-1
100
AcDbBlockReference
2
RECT
10
59.59
20
40.6146
30
0
41
5.08
42
1.143
43
0
50
270
70
1
71
1
44
0
45
0
0
INSERT
5
226
100
AcDbEntity
8
1
6
ByLayer
62
256
370
-1
100
AcDbBlockReference
2
RECT
10
64.0096
20
40.6146
30
0
41
5.08
42
2.286
43
0
50
270
70
1
71
1
44
0
45
0
0
INSERT
5
227
100
AcDbEntity
8
1
6
ByLayer
62
256
370
-1
100
AcDbBlockReference
2
RECT
10
55.1704
20
40.6146
30
0
41
5.08
42
2.286
43
0
50
270
70
1
71
1
44
0
45
0
0
INSERT
5
228
100
AcDbEntity
8
16
6
ByLayer
62
256
370
-1
100
AcDbBlockReference
2
RECT
10
64.0096
20
40.6146
30
0
41
5.08
42
2.286
43
0
50
270
70
1
71
1
44
0
45
0
0
INSERT
5
229
100
AcDbEntity
8
16
6
ByLayer
62
256
370
-1
100
AcDbBlockReference
2
RECT
10
55.1704
20
40.6146
30
0
41
5.08
42
2.286
43
0
50
270
70
1
71
1
44
0
45
0
0
DIMENSION
5
22A
100
AcDbEntity
8
0
6
ByLayer
62
256
370
-1
100
AcDbDimension
2
*D1
10
-30.336
20
43.75
30
0
11
-32.211
21
21.875
31
0
70
32
71
5
3
Standard
53
0
210
0
220
0
230
1
100
AcDbAlignedDimension
13
0
23
0
33
0
14
0
24
43.75
34
0
50
90
100
AcDbRotatedDimension
0
DIMENSION
5
22B
100
AcDbEntity
8
0
6
ByLayer
62
256
370
-1
100
AcDbDimension
2
*D2
10
-19.52
20
1.905
30
0
11
-21.395
21
21.9075
31
0
70
32
71
5
3
Standard
53
0
210
0
220
0
230
1
100
AcDbAlignedDimension
13
6.25
23
41.91
33
0
14
6.25
24
1.905
34
0
50
90
100
AcDbRotatedDimension
0
DIMENSION
5
22C
100
AcDbEntity
8
0
6
ByLayer
62
256
370
-1
100
AcDbDimension
2
*D3
10
68.58
20
-7.04
30
0
11
37.415
21
-5.165
31
0
70
32
71
5
3
Standard
53
0
210
0
220
0
230
1
100
AcDbAlignedDimension
13
6.25
23
1.905
33
0
14
68.58
24
1.905
34
0
100
AcDbRotatedDimension
0
DIMENSION
5
22D
100
AcDbEntity
8
0
6
ByLayer
62
256
370
-1
100
AcDbDimension
2
*D4
10
-7.8971709172e-016
20
-12.8974848
30
0
11
3.11296
21
-11.0224848
31
0
70
32
71
5
3
Standard
53
0
210
0
220
0
230
1
100
AcDbAlignedDimension
13
6.22592
23
1.376256
33
0
14
0
24
0
34
0
100
AcDbRotatedDimension
0
DIMENSION
5
22E
100
AcDbEntity
8
0
6
ByLayer
62
256
370
-1
100
AcDbDimension
2
*D5
10
0
20
1.905
30
0
11
-1.875
21
1.905
31
0
70
32
71
5
3
Standard
53
0
210
0
220
0
230
1
100
AcDbAlignedDimension
13
6.25
23
1.905
33
0
14
68.58
24
1.905
34
0
50
90
100
AcDbRotatedDimension
0
DIMENSION
5
22F
100
AcDbEntity
8
0
6
ByLayer
62
256
370
-1
100
AcDbDimension
2
*D6
10
46
20
57.4
30
0
11
23
21
59.275
31
0
70
32
71
5
3
Standard
53
0
210
0
220
0
230
1
100
AcDbAlignedDimension
13
0
23
0
33
0
14
46
24
42.8
34
0
100
AcDbRotatedDimension
0
DIMENSION
5
230
100
AcDbEntity
8
0
6
ByLayer
62
256
370
-1
100
AcDbDimension
2
*D7
10
59.68494592
20
63.616
30
0
11
29.84247296
21
65.491
31
0
70
32
71
5
3
Standard
53
0
210
0
220
0
230
1
100
AcDbAlignedDimension
13
0
23
0
33
0
14
59.68494592
24
43.36910336
34
0
100
AcDbRotatedDimension
0
DIMENSION
5
231
100
AcDbEntity
8
0
6
ByLayer
62
256
370
-1
100
AcDbDimension
2
*D8
10
-1.17562209967e-015
20
-19.2
30
0
11
37.25
21
-17.325
31
0
70
32
71
5
3
Standard
53
0
210
0
220
0
230
1
100
AcDbAlignedDimension
13
74.5
23
0
33
0
14
0
24
0
34
0
100
AcDbRotatedDimension
0
MTEXT
5
232
100
AcDbEntity
8
0
6
ByLayer
62
256
370
-1
100
AcDbMText
10
-39.52
20
-27.68
30
0
40
5
41
155.833346191
71
1
72
1
1
dimensions as measured and rounded to mils.
7
standard
210
0
220
0
230
1
50
0
73
2
44
1
0
DIMENSION
5
233
100
AcDbEntity
8
0
6
ByLayer
62
256
370
-1
100
AcDbDimension
2
*D9
10
68.58
20
41.91
30
0
11
72.1987062083
21
46.7756998286
31
0
70
36
71
5
3
Standard
53
0
210
0
220
0
230
1
100
AcDbRadialDimension
15
69.8850205278
25
42.8357005034
35
0
40
0
0
DIMENSION
5
234
100
AcDbEntity
8
0
6
ByLayer
62
256
370
-1
100
AcDbDimension
2
*D10
10
1.18502707647e-015
20
19.3536
30
0
11
8.5725
21
21.2286
31
0
70
32
71
5
3
Standard
53
0
210
0
220
0
230
1
100
AcDbAlignedDimension
13
17.145
23
10.16
33
0
14
0
24
0
34
0
100
AcDbRotatedDimension
0
ENDSEC
0
SECTION
2
OBJECTS
0
DICTIONARY
5
C
330
0
100
AcDbDictionary
281
1
3
ACAD_GROUP
350
D
0
DICTIONARY
5
D
330
C
100
AcDbDictionary
281
1
0
ENDSEC
0
EOF
